<?xml version="1.0" encoding="utf-8"?>
<!-- Generator: Adobe Illustrator 27.4.1, SVG Export Plug-In . SVG Version: 6.00 Build 0)  -->
<svg version="1.1" xmlns="http://www.w3.org/2000/svg" xmlns:xlink="http://www.w3.org/1999/xlink" x="0px" y="0px"
	 viewBox="0 0 750 500" style="enable-background:new 0 0 750 500;" xml:space="preserve">
<style type="text/css">
	.st0{fill:#E2A805;}
	.st1{fill:#BF8A00;}
	.st2{fill:#FEC500;}
	.st3{fill:#383838;}
	.st4{fill:#6D6D6D;}
	.st5{fill:#565656;}
	.st6{fill:#494949;}
	.st7{fill:none;stroke:#FEC500;stroke-width:4;stroke-miterlimit:10;}
	.st8{fill:none;}
	.st9{fill:#E3ECC0;}
	.st10{fill:#C3D0D8;}
</style>
<g id="BACKGROUND">
</g>
<g id="OBJECTS">
	<g>
		<path class="st0" d="M514.9,267.9c0,5.4-11.8,0.3-17.8,0.3h-60c-5.9,0-13.7,4.7-13.7-0.8l1.7-57.6v0l21.4-45.3
			c2.3-4.8,7.4-7.9,13.1-7.9h37.5c5.9,0,10.8,4.4,10.8,9.9L514.9,267.9z"/>
		<path class="st1" d="M522.2,268.5h-91.4v-26.8h84.3c3.9,0,7.1,3.2,7.1,7.1V268.5z"/>
		<path class="st2" d="M426.9,273.6h-93c-3,0-5.5-2.5-5.5-5.5v-43.5c0-8.2,6.6-14.8,14.8-14.8h83.7c3,0,5.5,2.5,5.5,5.5v52.8
			C432.4,271.1,429.9,273.6,426.9,273.6z"/>
		<path class="st1" d="M272.9,267.3l-10.8,55.1c-0.4,1.9-1.3,3.7-2.6,5.1l-12.3,13.8c-1.4,1.6,0,4.1,2.1,3.7l53.2-9l9.1-77.2
			c0.1-1.1-0.2-2.3-1-3.1L296.4,240c-0.7-0.8-2-0.8-2.7,0.1l-19.2,23.7C273.7,264.7,273.1,266,272.9,267.3z"/>
		<g>
			<g>
				<g>
					<path class="st3" d="M441.7,261.5c0.3-1,1.8-1,2.1,0l0.5,1.4l1.6,4.5h-3.1h-3.1l1.6-4.5L441.7,261.5z"/>
				</g>
				<g>
					<path class="st3" d="M451.3,261.5c0.3-1,1.8-1,2.1,0l0.5,1.4l1.6,4.5h-3.1h-3.1l1.6-4.5L451.3,261.5z"/>
				</g>
				<g>
					<path class="st3" d="M461.5,261.5c0.3-1,1.8-1,2.1,0l0.5,1.4l1.6,4.5h-3.1h-3.1l1.6-4.5L461.5,261.5z"/>
				</g>
				<g>
					<path class="st3" d="M471.1,261.5c0.3-1,1.8-1,2.1,0l0.5,1.4l1.6,4.5h-3.1h-3.1l1.6-4.5L471.1,261.5z"/>
				</g>
				<g>
					<path class="st3" d="M480.4,261.5c0.3-1,1.8-1,2.1,0l0.5,1.4l1.6,4.5h-3.1h-3.1l1.6-4.5L480.4,261.5z"/>
				</g>
				<g>
					<path class="st3" d="M490,261.5c0.3-1,1.8-1,2.1,0l0.5,1.4l1.6,4.5h-3.1H488l1.6-4.5L490,261.5z"/>
				</g>
				<g>
					<path class="st3" d="M500.2,261.5c0.3-1,1.8-1,2.1,0l0.5,1.4l1.6,4.5h-3.1h-3.1l1.6-4.5L500.2,261.5z"/>
				</g>
				<g>
					<path class="st3" d="M510.7,262.6c0.6-0.9,1.9-0.6,2.1,0.5l0.2,1.5l0.5,4.7l-3-0.7l-3-0.7l2.5-4L510.7,262.6z"/>
				</g>
				<g>
					<path class="st3" d="M520.7,266c0.8-0.7,2,0,1.8,1.1l-0.3,1.5l-0.9,4.6l-2.7-1.6L516,270l3.6-3.1L520.7,266z"/>
				</g>
				<g>
					<path class="st3" d="M528.6,271.2c0.9-0.5,2,0.5,1.5,1.5l-0.6,1.4l-2,4.3l-2.2-2.2L523,274l4.2-2.1L528.6,271.2z"/>
				</g>
				<g>
					<path class="st3" d="M535.8,279c1-0.2,1.8,1,1.1,1.8L536,282l-3,3.7l-1.6-2.6l-1.6-2.6l4.6-1L535.8,279z"/>
				</g>
				<g>
					<path class="st3" d="M540.7,288.3c1.1,0,1.5,1.4,0.7,2l-1.2,0.9l-3.7,2.9l-1-2.9l-1-2.9l4.7,0L540.7,288.3z"/>
				</g>
				<g>
					<path class="st3" d="M542.6,299.5c1,0.3,1,1.8,0,2.1l-1.4,0.5l-4.5,1.6l0-3.1l0-3.1l4.5,1.5L542.6,299.5z"/>
				</g>
				<g>
					<path class="st3" d="M358.1,266c-0.8-0.7-2,0-1.8,1.1l0.3,1.5l0.9,4.6l2.7-1.6l2.7-1.6l-3.6-3.1L358.1,266z"/>
				</g>
				<g>
					<path class="st3" d="M350.2,271.2c-0.9-0.5-2,0.5-1.5,1.5l0.6,1.4l2,4.3l2.2-2.2l2.2-2.2l-4.2-2.1L350.2,271.2z"/>
				</g>
				<g>
					<path class="st3" d="M343,279c-1-0.2-1.8,1-1.1,1.8l0.9,1.2l3,3.7l1.6-2.6l1.6-2.6l-4.6-1L343,279z"/>
				</g>
				<g>
					<path class="st3" d="M338.2,288.5c-1.1,0-1.5,1.4-0.6,2l1.2,0.9l3.8,2.8l0.9-3l0.9-3l-4.7,0.1L338.2,288.5z"/>
				</g>
				<g>
					<path class="st3" d="M336.1,300.1c-1,0.3-1,1.8,0,2.1l1.4,0.5l4.5,1.6l0-3.1l0-3.1l-4.5,1.5L336.1,300.1z"/>
				</g>
				<g>
					<path class="st3" d="M402.6,261.5c0.3-1,1.8-1,2.1,0l0.5,1.4l1.6,4.5h-3.1h-3.1l1.6-4.5L402.6,261.5z"/>
				</g>
				<g>
					<path class="st3" d="M412.2,261.5c0.3-1,1.8-1,2.1,0l0.5,1.4l1.6,4.5h-3.1h-3.1l1.6-4.5L412.2,261.5z"/>
				</g>
				<g>
					<path class="st3" d="M422.4,261.5c0.3-1,1.8-1,2.1,0l0.5,1.4l1.6,4.5h-3.1h-3.1l1.6-4.5L422.4,261.5z"/>
				</g>
				<g>
					<path class="st3" d="M432,261.5c0.3-1,1.8-1,2.1,0l0.5,1.4l1.6,4.5H433h-3.1l1.6-4.5L432,261.5z"/>
				</g>
				<g>
					<path class="st3" d="M364.2,263.4c0-1.1,1.4-1.5,2-0.6l0.9,1.2l2.8,3.8l-3,0.9l-3,0.9l0.2-4.7L364.2,263.4z"/>
				</g>
				<g>
					<path class="st3" d="M373,261.5c0.3-1,1.8-1,2.1,0l0.5,1.4l1.6,4.5h-3.1H371l1.6-4.5L373,261.5z"/>
				</g>
				<g>
					<path class="st3" d="M383.2,261.5c0.3-1,1.8-1,2.1,0l0.5,1.4l1.6,4.5h-3.1h-3.1l1.6-4.5L383.2,261.5z"/>
				</g>
				<g>
					<path class="st3" d="M392.8,261.5c0.3-1,1.8-1,2.1,0l0.5,1.4l1.6,4.5h-3.1h-3.1l1.6-4.5L392.8,261.5z"/>
				</g>
				<g>
					<path class="st3" d="M437.1,340.7c-0.3,1-1.8,1-2.1,0l-0.5-1.4l-1.6-4.5h3.1h3.1l-1.6,4.5L437.1,340.7z"/>
				</g>
				<g>
					<path class="st3" d="M427.4,340.7c-0.3,1-1.8,1-2.1,0l-0.5-1.4l-1.6-4.5h3.1h3.1l-1.6,4.5L427.4,340.7z"/>
				</g>
				<g>
					<path class="st3" d="M417.3,340.7c-0.3,1-1.8,1-2.1,0l-0.5-1.4l-1.6-4.5h3.1h3.1l-1.6,4.5L417.3,340.7z"/>
				</g>
				<g>
					<path class="st3" d="M407.6,340.7c-0.3,1-1.8,1-2.1,0l-0.5-1.4l-1.6-4.5h3.1h3.1l-1.6,4.5L407.6,340.7z"/>
				</g>
				<g>
					<path class="st3" d="M398.3,340.7c-0.3,1-1.8,1-2.1,0l-0.5-1.4l-1.6-4.5h3.1h3.1l-1.6,4.5L398.3,340.7z"/>
				</g>
				<g>
					<path class="st3" d="M388.7,340.7c-0.3,1-1.8,1-2.1,0l-0.5-1.4l-1.6-4.5h3.1h3.1l-1.6,4.5L388.7,340.7z"/>
				</g>
				<g>
					<path class="st3" d="M378.5,340.7c-0.3,1-1.8,1-2.1,0l-0.5-1.4l-1.6-4.5h3.1h3.1l-1.6,4.5L378.5,340.7z"/>
				</g>
				<g>
					<path class="st3" d="M368.1,339.7c-0.6,0.9-1.9,0.6-2.1-0.5l-0.2-1.5l-0.5-4.7l3,0.7l3,0.7l-2.5,4L368.1,339.7z"/>
				</g>
				<g>
					<path class="st3" d="M358.1,336.3c-0.8,0.7-2,0-1.8-1.1l0.3-1.5l0.9-4.6l2.7,1.6l2.7,1.6l-3.6,3.1L358.1,336.3z"/>
				</g>
				<g>
					<path class="st3" d="M350.2,331.1c-0.9,0.5-2-0.5-1.5-1.5l0.6-1.4l2-4.3l2.2,2.2l2.2,2.2l-4.2,2.1L350.2,331.1z"/>
				</g>
				<g>
					<path class="st3" d="M343,323.3c-1,0.2-1.8-1-1.1-1.8l0.9-1.2l3-3.7l1.6,2.6l1.6,2.6l-4.6,1L343,323.3z"/>
				</g>
				<g>
					<path class="st3" d="M338.1,313.6c-1.1,0-1.5-1.4-0.6-2l1.2-0.9l3.8-2.8l0.9,3l0.9,3l-4.7-0.2L338.1,313.6z"/>
				</g>
				<g>
					<path class="st3" d="M520.7,336.3c0.8,0.7,2,0,1.8-1.1l-0.3-1.5l-0.9-4.6l-2.7,1.6l-2.7,1.6l3.6,3.1L520.7,336.3z"/>
				</g>
				<g>
					<path class="st3" d="M528.6,331.1c0.9,0.5,2-0.5,1.5-1.5l-0.6-1.4l-2-4.3l-2.2,2.2l-2.2,2.2l4.2,2.1L528.6,331.1z"/>
				</g>
				<g>
					<path class="st3" d="M535.8,323.3c1,0.2,1.8-1,1.1-1.8l-0.9-1.2l-3-3.7l-1.6,2.6l-1.6,2.6l4.6,1L535.8,323.3z"/>
				</g>
				<g>
					<path class="st3" d="M540.7,313.9c1.1,0,1.5-1.4,0.7-2l-1.2-0.9l-3.7-2.9l-1,2.9l-1,2.9l4.7,0L540.7,313.9z"/>
				</g>
				<g>
					<path class="st3" d="M476.2,340.7c-0.3,1-1.8,1-2.1,0l-0.5-1.4l-1.6-4.5h3.1h3.1l-1.6,4.5L476.2,340.7z"/>
				</g>
				<g>
					<path class="st3" d="M466.6,340.7c-0.3,1-1.8,1-2.1,0l-0.5-1.4l-1.6-4.5h3.1h3.1l-1.6,4.5L466.6,340.7z"/>
				</g>
				<g>
					<path class="st3" d="M456.4,340.7c-0.3,1-1.8,1-2.1,0l-0.5-1.4l-1.6-4.5h3.1h3.1l-1.6,4.5L456.4,340.7z"/>
				</g>
				<g>
					<path class="st3" d="M446.8,340.7c-0.3,1-1.8,1-2.1,0l-0.5-1.4l-1.6-4.5h3.1h3.1l-1.6,4.5L446.8,340.7z"/>
				</g>
				<g>
					<path class="st3" d="M514.6,338.9c0,1.1-1.4,1.5-2,0.6l-0.9-1.2l-2.8-3.8l3-0.9l3-0.9l-0.2,4.7L514.6,338.9z"/>
				</g>
				<g>
					<path class="st3" d="M505.8,340.7c-0.3,1-1.8,1-2.1,0l-0.5-1.4l-1.6-4.5h3.1h3.1l-1.6,4.5L505.8,340.7z"/>
				</g>
				<g>
					<path class="st3" d="M495.6,340.7c-0.3,1-1.8,1-2.1,0l-0.5-1.4l-1.6-4.5h3.1h3.1l-1.6,4.5L495.6,340.7z"/>
				</g>
				<g>
					<path class="st3" d="M486,340.7c-0.3,1-1.8,1-2.1,0l-0.5-1.4l-1.6-4.5h3.1h3.1l-1.6,4.5L486,340.7z"/>
				</g>
			</g>
			<g>
				<g>
					<path class="st3" d="M536.9,297.5c-0.2-1.5-0.5-3-0.8-4.4c0,0,0,0,0-0.1c-0.4-1.6-1-3.2-1.6-4.8v0h0c-0.4-1-0.9-1.9-1.4-2.8
						c-1-1.8-2.1-3.5-3.4-5.1c-0.6-0.8-1.3-1.6-2.1-2.4c-1.4-1.5-2.9-2.8-4.6-4c-0.6-0.4-1.1-0.8-1.7-1.2c-1.7-1.1-3.5-2-5.4-2.8
						c-0.8-0.4-1.7-0.7-2.6-1c-1.9-0.6-3.9-1.1-5.9-1.3c-1.5-0.2-3-0.3-4.5-0.3H376.3c-5.5,0-10.7,1.3-15.3,3.6c0,0,0,0,0,0
						c-1.2,0.6-2.3,1.3-3.4,2c0,0-0.1,0-0.1,0.1c-1.9,1.3-3.7,2.7-5.3,4.3c-6.2,6.2-10,14.7-10,24.2c0,2.8,0.3,5.5,1,8.1
						c0,0,0,0.1,0,0.1c0.2,1,0.5,2,0.9,2.9l0,0c0.4,1.4,1,2.7,1.6,4c0.9,1.8,2,3.6,3.2,5.2c0.7,0.9,1.4,1.8,2.1,2.6
						c1.3,1.4,2.7,2.8,4.3,4c0.7,0.5,1.3,1,2,1.5c1.6,1.1,3.2,2,5,2.8c1,0.5,2.1,0.9,3.2,1.3c1.7,0.6,3.5,1,5.3,1.3
						c1.3,0.2,2.6,0.3,3.9,0.4c0.5,0,1.1,0,1.6,0H503c1.6,0,3.1-0.1,4.6-0.3c0.6-0.1,1.2-0.2,1.8-0.3c1.9-0.3,3.6-0.8,5.4-1.5
						c0.7-0.2,1.3-0.5,1.9-0.8c1.7-0.7,3.3-1.6,4.8-2.6c0.8-0.5,1.6-1.1,2.3-1.6c1.5-1.1,2.9-2.4,4.1-3.8c0.9-0.9,1.7-1.9,2.4-2.9
						c1.2-1.5,2.2-3.2,3.1-4.9c0.5-1,1-2.1,1.4-3.2c0.7-1.9,1.3-3.8,1.7-5.8c0.3-1.5,0.5-3,0.6-4.6c0-0.6,0.1-1.3,0.1-1.9
						C537.2,300.2,537.1,298.9,536.9,297.5z M376.3,269.7H503c17.6,0,31.9,14.3,31.9,31.9c0,17.6-14.3,31.9-31.9,31.9H376.3
						c-17.6,0-31.9-14.3-31.9-31.9C344.4,284,358.7,269.7,376.3,269.7z"/>
					<path d="M503,269.3H376.3c-17.8,0-32.3,14.5-32.3,32.3c0,17.8,14.5,32.3,32.3,32.3H503c17.8,0,32.3-14.5,32.3-32.3
						C535.3,283.8,520.8,269.3,503,269.3z M376.3,333.1c-17.4,0-31.5-14.1-31.5-31.5c0-17.3,14.1-31.5,31.5-31.5H503
						c17.4,0,31.5,14.1,31.5,31.5c0,17.4-14.1,31.5-31.5,31.5H376.3z M503,269.3H376.3c-17.8,0-32.3,14.5-32.3,32.3
						c0,17.8,14.5,32.3,32.3,32.3H503c17.8,0,32.3-14.5,32.3-32.3C535.3,283.8,520.8,269.3,503,269.3z M376.3,333.1
						c-17.4,0-31.5-14.1-31.5-31.5c0-17.3,14.1-31.5,31.5-31.5H503c17.4,0,31.5,14.1,31.5,31.5c0,17.4-14.1,31.5-31.5,31.5H376.3z
						 M537.4,297.7c-0.1-1.3-0.3-2.5-0.6-3.7c-0.4-2-1-3.8-1.8-5.7c-0.5-1.1-1-2.2-1.5-3.2c-0.9-1.7-2-3.3-3.2-4.9
						c-0.7-0.9-1.5-1.8-2.3-2.7c-1.3-1.4-2.8-2.7-4.3-3.8c-0.7-0.5-1.4-1-2.1-1.4c-1.6-1-3.3-1.9-5.1-2.7c-1-0.4-2-0.8-3-1.1
						c-1.8-0.6-3.7-1-5.6-1.2c-1.1-0.2-2.3-0.3-3.5-0.3c-0.4,0-0.8,0-1.3,0H376.3c-1.8,0-3.6,0.1-5.4,0.4h0
						c-0.4,0.1-0.8,0.1-1.2,0.2c-2,0.4-3.9,0.9-5.8,1.7c-0.5,0.2-0.9,0.3-1.4,0.5c-1.8,0.8-3.6,1.7-5.3,2.8
						c-0.6,0.4-1.2,0.8-1.8,1.3c-1.6,1.2-3.1,2.6-4.5,4c-0.7,0.8-1.4,1.6-2,2.4v0c0,0,0,0,0,0.1c-1.3,1.6-2.4,3.3-3.3,5.1
						c-0.5,0.9-1,1.9-1.4,2.9c-0.8,1.9-1.4,3.9-1.8,5.9v0c-0.3,1.2-0.5,2.5-0.6,3.8c-0.1,1.2-0.2,2.3-0.2,3.5c0,0.9,0,1.8,0.1,2.6
						c0.1,1.3,0.3,2.6,0.5,3.9c0.4,2,0.9,3.9,1.6,5.7c0.4,1.1,0.9,2.2,1.4,3.2c0.9,1.7,1.9,3.4,3,5c0.7,1,1.5,2,2.4,2.9
						c1.2,1.4,2.6,2.6,4,3.8c0.8,0.6,1.5,1.2,2.3,1.7c1.5,1,3.1,1.9,4.7,2.6c1.2,0.5,2.4,1,3.6,1.4c1.6,0.5,3.3,1,5,1.2
						c1.4,0.3,2.8,0.4,4.3,0.5c0.5,0,1,0,1.5,0H503c1.5,0,3-0.1,4.4-0.3c0.8-0.1,1.5-0.2,2.3-0.4c1.7-0.3,3.4-0.8,5.1-1.4
						c0.8-0.3,1.5-0.6,2.3-0.9c1.6-0.7,3.1-1.5,4.6-2.5c0.9-0.6,1.8-1.2,2.6-1.9c1.4-1.1,2.7-2.3,3.9-3.5c1-1,1.9-2.1,2.7-3.2
						c1.1-1.5,2.1-3,2.9-4.6c0.6-1.1,1.1-2.3,1.6-3.5c0.7-1.8,1.2-3.6,1.6-5.5c0.3-1.6,0.5-3.3,0.6-5.1c0-0.6,0-1.2,0-1.8
						C537.6,300.3,537.5,299,537.4,297.7z M533.1,316.8c-0.9,1.8-2,3.5-3.2,5.2c-0.7,0.9-1.4,1.7-2.1,2.6c-1.3,1.4-2.8,2.8-4.3,3.9
						c-0.6,0.5-1.3,1-2,1.4c-1.6,1.1-3.3,2-5.1,2.8c-0.5,0.2-1,0.4-1.5,0.6c-1.8,0.7-3.7,1.2-5.7,1.6c-0.5,0.1-0.9,0.2-1.4,0.2
						c-1.6,0.2-3.1,0.3-4.8,0.3H376.3c-0.6,0-1.2,0-1.8,0c-1.2-0.1-2.3-0.2-3.5-0.4c-1.9-0.3-3.8-0.8-5.6-1.4
						c-1-0.3-1.9-0.7-2.8-1.1c-1.8-0.8-3.6-1.8-5.2-2.9c-0.6-0.4-1.1-0.8-1.7-1.2c-1.6-1.2-3.1-2.6-4.5-4.2
						c-5.4-6-8.6-13.9-8.6-22.5c0-18.6,15.1-33.8,33.8-33.8H503c18.6,0,33.8,15.1,33.8,33.8C536.8,307.1,535.4,312.2,533.1,316.8z
						 M503,269.3H376.3c-17.8,0-32.3,14.5-32.3,32.3c0,17.8,14.5,32.3,32.3,32.3H503c17.8,0,32.3-14.5,32.3-32.3
						C535.3,283.8,520.8,269.3,503,269.3z M376.3,333.1c-17.4,0-31.5-14.1-31.5-31.5c0-17.3,14.1-31.5,31.5-31.5H503
						c17.4,0,31.5,14.1,31.5,31.5c0,17.4-14.1,31.5-31.5,31.5H376.3z M503,269.3H376.3c-17.8,0-32.3,14.5-32.3,32.3
						c0,17.8,14.5,32.3,32.3,32.3H503c17.8,0,32.3-14.5,32.3-32.3C535.3,283.8,520.8,269.3,503,269.3z M376.3,333.1
						c-17.4,0-31.5-14.1-31.5-31.5c0-17.3,14.1-31.5,31.5-31.5H503c17.4,0,31.5,14.1,31.5,31.5c0,17.4-14.1,31.5-31.5,31.5H376.3z
						 M503,269.3H376.3c-17.8,0-32.3,14.5-32.3,32.3c0,17.8,14.5,32.3,32.3,32.3H503c17.8,0,32.3-14.5,32.3-32.3
						C535.3,283.8,520.8,269.3,503,269.3z M376.3,333.1c-17.4,0-31.5-14.1-31.5-31.5c0-17.3,14.1-31.5,31.5-31.5H503
						c17.4,0,31.5,14.1,31.5,31.5c0,17.4-14.1,31.5-31.5,31.5H376.3z"/>
					<path class="st4" d="M534.5,301.6c0,17.4-14.1,31.5-31.5,31.5H376.3c-17.4,0-31.5-14.1-31.5-31.5c0-17.3,14.1-31.5,31.5-31.5
						H503C520.3,270.1,534.5,284.3,534.5,301.6z"/>
				</g>
			</g>
		</g>
		<rect x="392.4" y="291.4" class="st5" width="95" height="11"/>
		<g>
			<path class="st6" d="M522.9,302.1c0,8.5-6.9,15.5-15.5,15.5c-8.5,0-15.5-6.9-15.5-15.5c0-8.5,6.9-15.5,15.5-15.5
				C515.9,286.6,522.9,293.5,522.9,302.1z"/>
			<g>
				<path class="st2" d="M507.5,296.5c-3.1,0-5.6,2.5-5.6,5.7c0,3.1,2.5,5.6,5.6,5.6c3.1,0,5.7-2.5,5.7-5.6
					C513.1,299,510.6,296.5,507.5,296.5z M507.5,306.5c-2.4,0-4.4-2-4.4-4.4c0-2.4,2-4.4,4.4-4.4c2.4,0,4.4,2,4.4,4.4
					C511.8,304.5,509.9,306.5,507.5,306.5z"/>
				<path class="st3" d="M511.8,302.1c0,2.4-2,4.4-4.4,4.4c-2.4,0-4.4-2-4.4-4.4c0-2.4,2-4.4,4.4-4.4
					C509.9,297.8,511.8,299.7,511.8,302.1z"/>
				<path class="st2" d="M531.4,298.8c0.7-0.5,0.4-2.1-0.4-2.3l-1.1-0.4l-3.1-1c-0.4-0.9-0.8-1.9-1.2-2.7l1-3.2l0.3-1.1
					c0.2-0.8-0.9-1.9-1.7-1.7l-1.1,0.3l-2.4,0.7c-1.3-1.2-2.7-2.3-4.3-3.2l-0.6-3l-0.2-1.2c-0.2-0.8-1.7-1.3-2.3-0.7l-0.8,0.8
					l-1.9,1.9c-1.3-0.3-2.7-0.4-4.1-0.4c-0.6,0-1.2,0-1.8,0.1l-1.8-2.1l-0.8-0.9c-0.5-0.6-2.1-0.3-2.3,0.5l-0.3,1.1l-0.9,2.9
					c-1.1,0.5-2.1,1-3.1,1.6l-3.1-0.9l-1.1-0.3c-0.8-0.2-1.9,0.9-1.7,1.7l0.3,1.1l0.8,2.6c-0.7,0.8-1.3,1.7-1.8,2.6l-3.2,0.4
					l-1.2,0.1c-0.8,0.1-1.4,1.6-0.9,2.2l0.8,0.9l2,2.3c-0.3,1.1-0.4,2.3-0.5,3.4l-2.5,1.6l-1,0.6c-0.7,0.4-0.6,2,0.2,2.4l1.1,0.5
					l2.8,1.2c0.1,0.6,0.3,1.1,0.5,1.7l-1.9,3l-0.6,1c-0.4,0.7,0.3,2.1,1.2,2.1l1.2,0l3.4-0.1c0.4,0.5,0.8,1,1.3,1.5l-0.8,2.5
					l-0.3,1.1c-0.2,0.8,0.9,1.9,1.7,1.7l1.1-0.3l3.4-1c0.8,0.4,1.6,0.8,2.4,1.1l0.9,3l0.3,1.1c0.2,0.8,1.8,1.1,2.3,0.5l0.8-0.9
					l2-2.3c0.4,0,0.8,0.1,1.2,0.1c1.2,0,2.3-0.1,3.4-0.3l2.1,2l0.9,0.8c0.6,0.6,2.1,0.1,2.3-0.8l0.2-1.2l0.5-2.8
					c1.5-0.7,2.9-1.7,4.1-2.7l2.4,0.7l1.1,0.3c0.8,0.2,1.9-0.9,1.7-1.7l-0.3-1.1l-0.9-2.8c0.6-0.9,1.1-1.8,1.5-2.8l2.6-0.5l1.2-0.2
					c0.8-0.2,1.3-1.7,0.7-2.3l-0.8-0.8l-2.1-2.1c0.1-0.8,0.1-1.5,0.1-2.3c0-0.3,0-0.6,0-0.9l2.4-1.9L531.4,298.8z M507.5,321.6
					c-10.6,0-19.3-8.7-19.3-19.3c0-10.6,8.7-19.3,19.3-19.3c10.6,0,19.3,8.7,19.3,19.3C526.8,312.9,518.1,321.6,507.5,321.6z"/>
				<path class="st2" d="M522.7,295.9c-2.5-6-8.4-10.1-15.2-10.1c-0.7,0-1.3,0.1-2,0.1v0l0,0c-5.6,0.7-10.4,4.2-12.8,9.1l-0.6,1.4
					c-0.7,1.8-1.1,3.8-1.1,5.9c0,1.9,0.3,3.7,0.9,5.5l0.2,0.5c2.4,6.2,8.4,10.6,15.4,10.6c6.6,0,12.2-3.9,14.9-9.4l0,0l0-0.1
					c1-2.1,1.6-4.5,1.6-7c0-2.1-0.4-4.2-1.2-6L522.7,295.9z M522.3,302.8l-0.8,4.4l-5.2-3.4c-0.2-0.2-0.5-0.7-0.4-1.4
					c0-0.7,0.3-1.2,0.5-1.4l5.4-3.1L522.3,302.8z M518.1,292l-5.4,3.2v0c-0.2,0.1-0.8,0.1-1.4-0.2c-0.6-0.3-1-0.8-1-1.1l-0.4-6.2
					l4.6,1.7L518.1,292z M504.2,294c0,0.3-0.3,0.8-0.9,1.1c-0.6,0.4-1.2,0.4-1.4,0.3l-5.5-2.9l3.8-3.1l4.1-1.7L504.2,294z
					 M492.5,301.2l0.8-4.4l5.2,3.4l0,0c0.2,0.2,0.5,0.7,0.4,1.4c0,0.7-0.3,1.2-0.5,1.4l-5.4,3.1L492.5,301.2z M500,314.6l-3.5-2.8
					l5.5-3c0.2-0.1,0.8-0.1,1.4,0.3c0.6,0.4,1,0.8,1,1.1l0.2,6.2L500,314.6z M510.9,310.3c0-0.3,0.3-0.8,0.9-1.1
					c0.6-0.4,1.2-0.5,1.4-0.3l5.6,2.8l-3.7,3.2l-4.1,1.8L510.9,310.3z M520,310.8l-6.2-3.1c-0.7-0.4-1.7-0.2-2.7,0.4
					c-1,0.6-1.5,1.4-1.5,2.2l0.1,6.9c-0.7,0.1-1.5,0.2-2.3,0.2c-0.6,0-1.1,0-1.6-0.1l-0.2-7.2c0-0.8-0.6-1.6-1.6-2.2
					c-1-0.6-2-0.7-2.7-0.3l-6.2,3.4c-0.8-1.1-1.5-2.3-1.9-3.6l5.9-3.3c0.7-0.4,1.1-1.3,1.2-2.5c0-1.1-0.3-2.1-1-2.5l-5.5-3.5
					c0.4-0.8,0.8-1.5,1.3-2.2l6.2,3.2c0.3,0.1,0.6,0.2,0.9,0.2c0.6,0,1.2-0.2,1.8-0.6c1-0.6,1.6-1.4,1.5-2.2l0-6.9
					c0.6-0.1,1.3-0.1,2-0.1c0.4,0,0.8,0,1.2,0.1l0.4,6.9c0,0.8,0.7,1.6,1.7,2.1c0.6,0.3,1.2,0.5,1.7,0.5c0.4,0,0.7-0.1,1-0.3l6-3.5
					c0.9,1.1,1.6,2.4,2.2,3.7l-5.9,3.4c-0.7,0.4-1.1,1.3-1.2,2.5c0,1.1,0.4,2.1,1,2.5l5.7,3.7C520.9,309.3,520.5,310.1,520,310.8z"
					/>
			</g>
		</g>
		<g>
			<path class="st6" d="M389.6,302.1c0,8.5-6.9,15.5-15.5,15.5c-8.5,0-15.5-6.9-15.5-15.5c0-8.5,6.9-15.5,15.5-15.5
				C382.7,286.6,389.6,293.5,389.6,302.1z"/>
			<g>
				<path class="st2" d="M374.2,296.5c-3.1,0-5.6,2.5-5.6,5.7c0,3.1,2.5,5.6,5.6,5.6c3.1,0,5.7-2.5,5.7-5.6
					C379.8,299,377.3,296.5,374.2,296.5z M374.2,306.5c-2.4,0-4.4-2-4.4-4.4c0-2.4,2-4.4,4.4-4.4c2.4,0,4.4,2,4.4,4.4
					C378.6,304.5,376.6,306.5,374.2,306.5z"/>
				<path class="st3" d="M378.6,302.1c0,2.4-2,4.4-4.4,4.4c-2.4,0-4.4-2-4.4-4.4c0-2.4,2-4.4,4.4-4.4
					C376.6,297.8,378.6,299.7,378.6,302.1z"/>
				<path class="st2" d="M398.1,298.8c0.7-0.5,0.4-2.1-0.4-2.3l-1.1-0.4l-3.1-1c-0.4-0.9-0.8-1.9-1.2-2.7l1-3.2l0.3-1.1
					c0.2-0.8-0.9-1.9-1.7-1.7l-1.1,0.3l-2.4,0.7c-1.3-1.2-2.7-2.3-4.3-3.2l-0.6-3l-0.2-1.2c-0.2-0.8-1.7-1.3-2.3-0.7l-0.8,0.8
					l-1.9,1.9c-1.3-0.3-2.7-0.4-4.1-0.4c-0.6,0-1.2,0-1.8,0.1l-1.8-2.1l-0.8-0.9c-0.5-0.6-2.1-0.3-2.3,0.5l-0.3,1.1l-0.9,2.9
					c-1.1,0.5-2.1,1-3.1,1.6l-3.1-0.9l-1.1-0.3c-0.8-0.2-1.9,0.9-1.7,1.7l0.3,1.1l0.8,2.6c-0.7,0.8-1.3,1.7-1.8,2.6l-3.2,0.4
					l-1.2,0.1c-0.8,0.1-1.4,1.6-0.9,2.2l0.8,0.9l2,2.3c-0.3,1.1-0.4,2.3-0.5,3.4l-2.5,1.6l-1,0.6c-0.7,0.4-0.6,2,0.2,2.4l1.1,0.5
					l2.8,1.2c0.1,0.6,0.3,1.1,0.5,1.7l-1.9,3l-0.6,1c-0.4,0.7,0.3,2.1,1.2,2.1l1.2,0l3.4-0.1c0.4,0.5,0.8,1,1.3,1.5l-0.8,2.5
					l-0.3,1.1c-0.2,0.8,0.9,1.9,1.7,1.7l1.1-0.3l3.4-1c0.8,0.4,1.6,0.8,2.4,1.1l0.9,3l0.3,1.1c0.2,0.8,1.8,1.1,2.3,0.5l0.8-0.9
					l2-2.3c0.4,0,0.8,0.1,1.2,0.1c1.2,0,2.3-0.1,3.4-0.3l2.1,2l0.9,0.8c0.6,0.6,2.1,0.1,2.3-0.8l0.2-1.2l0.5-2.8
					c1.5-0.7,2.9-1.7,4.1-2.7l2.4,0.7l1.1,0.3c0.8,0.2,1.9-0.9,1.7-1.7l-0.3-1.1l-0.9-2.8c0.6-0.9,1.1-1.8,1.5-2.8l2.6-0.5l1.2-0.2
					c0.8-0.2,1.3-1.7,0.7-2.3l-0.8-0.8l-2.1-2.1c0.1-0.8,0.1-1.5,0.1-2.3c0-0.3,0-0.6,0-0.9l2.4-1.9L398.1,298.8z M374.2,321.6
					c-10.6,0-19.3-8.7-19.3-19.3c0-10.6,8.7-19.3,19.3-19.3c10.6,0,19.3,8.7,19.3,19.3C393.5,312.9,384.8,321.6,374.2,321.6z"/>
				<path class="st2" d="M389.4,295.9c-2.5-6-8.4-10.1-15.2-10.1c-0.7,0-1.3,0.1-2,0.1v0l0,0c-5.6,0.7-10.4,4.2-12.8,9.1l-0.6,1.4
					c-0.7,1.8-1.1,3.8-1.1,5.9c0,1.9,0.3,3.7,0.9,5.5l0.2,0.5c2.4,6.2,8.4,10.6,15.4,10.6c6.6,0,12.2-3.9,14.9-9.4l0,0l0-0.1
					c1-2.1,1.6-4.5,1.6-7c0-2.1-0.4-4.2-1.2-6L389.4,295.9z M389,302.8l-0.8,4.4l-5.2-3.4c-0.2-0.2-0.5-0.7-0.4-1.4
					c0-0.7,0.3-1.2,0.5-1.4l5.4-3.1L389,302.8z M384.8,292l-5.4,3.2v0c-0.2,0.1-0.8,0.1-1.4-0.2c-0.6-0.3-1-0.8-1-1.1l-0.4-6.2
					l4.6,1.7L384.8,292z M370.9,294c0,0.3-0.3,0.8-0.9,1.1c-0.6,0.4-1.2,0.4-1.4,0.3l-5.5-2.9l3.8-3.1l4.1-1.7L370.9,294z
					 M359.2,301.2l0.8-4.4l5.2,3.4l0,0c0.2,0.2,0.5,0.7,0.4,1.4c0,0.7-0.3,1.2-0.5,1.4l-5.4,3.1L359.2,301.2z M366.7,314.6l-3.5-2.8
					l5.5-3c0.2-0.1,0.8-0.1,1.4,0.3c0.6,0.4,1,0.8,1,1.1l0.2,6.2L366.7,314.6z M377.6,310.3c0-0.3,0.3-0.8,0.9-1.1
					c0.6-0.4,1.2-0.5,1.4-0.3l5.6,2.8l-3.7,3.2l-4.1,1.8L377.6,310.3z M386.7,310.8l-6.2-3.1c-0.7-0.4-1.7-0.2-2.7,0.4
					c-1,0.6-1.5,1.4-1.5,2.2l0.1,6.9c-0.7,0.1-1.5,0.2-2.3,0.2c-0.6,0-1.1,0-1.6-0.1l-0.2-7.2c0-0.8-0.6-1.6-1.6-2.2
					c-1-0.6-2-0.7-2.7-0.3l-6.2,3.4c-0.8-1.1-1.5-2.3-1.9-3.6l5.9-3.3c0.7-0.4,1.1-1.3,1.2-2.5c0-1.1-0.3-2.1-1-2.5l-5.5-3.5
					c0.4-0.8,0.8-1.5,1.3-2.2l6.2,3.2c0.3,0.1,0.6,0.2,0.9,0.2c0.6,0,1.2-0.2,1.8-0.6c1-0.6,1.6-1.4,1.5-2.2l0-6.9
					c0.6-0.1,1.3-0.1,2-0.1c0.4,0,0.8,0,1.2,0.1l0.4,6.9c0,0.8,0.7,1.6,1.7,2.1c0.6,0.3,1.2,0.5,1.7,0.5c0.4,0,0.7-0.1,1-0.3l6-3.5
					c0.9,1.1,1.6,2.4,2.2,3.7l-5.9,3.4c-0.7,0.4-1.1,1.3-1.2,2.5c0,1.1,0.4,2.1,1,2.5l5.7,3.7C387.6,309.3,387.2,310.1,386.7,310.8z
					"/>
			</g>
		</g>
		<g>
			<g>
				<g>
					<path class="st2" d="M451.2,313.2c-1.9,0-3.4,1.5-3.4,3.4c0,1.9,1.5,3.4,3.4,3.4c1.9,0,3.4-1.5,3.4-3.4
						C454.7,314.8,453.1,313.2,451.2,313.2z M451.2,319.3c-1.5,0-2.7-1.2-2.7-2.7c0-1.5,1.2-2.7,2.7-2.7c1.5,0,2.7,1.2,2.7,2.7
						C453.9,318.1,452.7,319.3,451.2,319.3z"/>
				</g>
				<g>
					<path class="st2" d="M460.1,313c-1.5-3.5-4.9-5.9-8.9-5.9c-0.4,0-0.8,0-1.2,0.1v0l0,0c-3.3,0.4-6.1,2.5-7.5,5.3l-0.3,0.8
						c-0.4,1.1-0.7,2.2-0.7,3.5c0,1.1,0.2,2.2,0.6,3.2l0.1,0.3c1.4,3.6,4.9,6.2,9,6.2c3.8,0,7.1-2.3,8.7-5.5l0,0l0,0
						c0.6-1.2,0.9-2.6,0.9-4.1c0-1.2-0.2-2.4-0.7-3.5L460.1,313z M459.9,317l-0.5,2.6l-3.1-2c-0.1-0.1-0.3-0.4-0.3-0.8
						c0-0.4,0.2-0.7,0.3-0.8l3.2-1.8L459.9,317z M457.5,310.7l-3.1,1.9v0c-0.1,0.1-0.5,0.1-0.8-0.1c-0.4-0.2-0.6-0.5-0.6-0.6
						l-0.2-3.6l2.7,1L457.5,310.7z M449.3,311.9c0,0.2-0.2,0.4-0.5,0.7c-0.4,0.2-0.7,0.3-0.8,0.2l-3.2-1.7l2.2-1.8l2.4-1
						L449.3,311.9z M442.5,316.1l0.5-2.6l3.1,2l0,0c0.1,0.1,0.3,0.4,0.3,0.8c0,0.4-0.2,0.7-0.3,0.8l-3.2,1.8L442.5,316.1z
						 M446.8,323.9l-2-1.6l3.2-1.8c0.1-0.1,0.5,0,0.8,0.2c0.4,0.2,0.6,0.5,0.6,0.6l0.1,3.6L446.8,323.9z M453.2,321.4
						c0-0.2,0.2-0.4,0.5-0.7c0.4-0.2,0.7-0.3,0.8-0.2l3.3,1.6l-2.2,1.8l-2.4,1L453.2,321.4z M458.6,321.7l-3.6-1.8
						c-0.4-0.2-1-0.1-1.6,0.2c-0.6,0.4-0.9,0.8-0.9,1.3l0.1,4c-0.4,0.1-0.9,0.1-1.3,0.1c-0.3,0-0.6,0-1-0.1l-0.1-4.2
						c0-0.5-0.4-0.9-0.9-1.3c-0.6-0.3-1.2-0.4-1.6-0.2l-3.6,2c-0.5-0.6-0.8-1.4-1.1-2.1l3.4-2c0.4-0.2,0.7-0.8,0.7-1.4
						c0-0.7-0.2-1.2-0.6-1.5l-3.2-2.1c0.2-0.5,0.5-0.9,0.8-1.3l3.6,1.9c0.2,0.1,0.3,0.1,0.5,0.1c0.3,0,0.7-0.1,1-0.3
						c0.6-0.3,0.9-0.8,0.9-1.3l0-4c0.4,0,0.8-0.1,1.2-0.1c0.2,0,0.5,0,0.7,0l0.2,4.1c0,0.5,0.4,0.9,1,1.2c0.3,0.2,0.7,0.3,1,0.3
						c0.2,0,0.4-0.1,0.6-0.2l3.5-2.1c0.5,0.7,0.9,1.4,1.3,2.2l-3.4,2c-0.4,0.2-0.7,0.8-0.7,1.4c0,0.7,0.2,1.2,0.6,1.5l3.4,2.2
						C459.1,320.8,458.8,321.3,458.6,321.7z"/>
				</g>
				<g>
					<path class="st2" d="M451.2,327.4c-5.9,0-10.8-4.8-10.8-10.8c0-5.9,4.8-10.8,10.8-10.8c5.9,0,10.8,4.8,10.8,10.8
						C462,322.6,457.2,327.4,451.2,327.4z M451.2,308.2c-4.7,0-8.5,3.8-8.5,8.5s3.8,8.5,8.5,8.5c4.7,0,8.5-3.8,8.5-8.5
						S455.9,308.2,451.2,308.2z"/>
				</g>
			</g>
		</g>
		<g>
			<g>
				<g>
					<path class="st2" d="M426,313.2c-1.9,0-3.4,1.5-3.4,3.4c0,1.9,1.5,3.4,3.4,3.4c1.9,0,3.4-1.5,3.4-3.4
						C429.4,314.8,427.9,313.2,426,313.2z M426,319.3c-1.5,0-2.7-1.2-2.7-2.7c0-1.5,1.2-2.7,2.7-2.7c1.5,0,2.7,1.2,2.7,2.7
						C428.6,318.1,427.4,319.3,426,319.3z"/>
				</g>
				<g>
					<path class="st2" d="M434.9,313c-1.5-3.5-4.9-5.9-8.9-5.9c-0.4,0-0.8,0-1.2,0.1v0l0,0c-3.3,0.4-6.1,2.5-7.5,5.3l-0.3,0.8
						c-0.4,1.1-0.7,2.2-0.7,3.5c0,1.1,0.2,2.2,0.6,3.2l0.1,0.3c1.4,3.6,4.9,6.2,9,6.2c3.8,0,7.1-2.3,8.7-5.5l0,0l0,0
						c0.6-1.2,0.9-2.6,0.9-4.1c0-1.2-0.2-2.4-0.7-3.5L434.9,313z M434.6,317l-0.5,2.6l-3.1-2c-0.1-0.1-0.3-0.4-0.3-0.8
						c0-0.4,0.2-0.7,0.3-0.8l3.2-1.8L434.6,317z M432.2,310.7l-3.1,1.9v0c-0.1,0.1-0.5,0.1-0.8-0.1c-0.4-0.2-0.6-0.5-0.6-0.6
						l-0.2-3.6l2.7,1L432.2,310.7z M424.1,311.9c0,0.2-0.2,0.4-0.5,0.7c-0.4,0.2-0.7,0.3-0.8,0.2l-3.2-1.7l2.2-1.8l2.4-1
						L424.1,311.9z M417.2,316.1l0.5-2.6l3.1,2l0,0c0.1,0.1,0.3,0.4,0.3,0.8c0,0.4-0.2,0.7-0.3,0.8l-3.2,1.8L417.2,316.1z
						 M421.6,323.9l-2-1.6l3.2-1.8c0.1-0.1,0.5,0,0.8,0.2c0.4,0.2,0.6,0.5,0.6,0.6l0.1,3.6L421.6,323.9z M428,321.4
						c0-0.2,0.2-0.4,0.5-0.7c0.4-0.2,0.7-0.3,0.8-0.2l3.3,1.6l-2.2,1.8l-2.4,1L428,321.4z M433.3,321.7l-3.6-1.8
						c-0.4-0.2-1-0.1-1.6,0.2c-0.6,0.4-0.9,0.8-0.9,1.3l0.1,4c-0.4,0.1-0.9,0.1-1.3,0.1c-0.3,0-0.6,0-1-0.1l-0.1-4.2
						c0-0.5-0.4-0.9-0.9-1.3c-0.6-0.3-1.2-0.4-1.6-0.2l-3.6,2c-0.5-0.6-0.8-1.4-1.1-2.1l3.4-2c0.4-0.2,0.7-0.8,0.7-1.4
						c0-0.7-0.2-1.2-0.6-1.5l-3.2-2.1c0.2-0.5,0.5-0.9,0.8-1.3l3.6,1.9c0.2,0.1,0.3,0.1,0.5,0.1c0.3,0,0.7-0.1,1-0.3
						c0.6-0.3,0.9-0.8,0.9-1.3l0-4c0.4,0,0.8-0.1,1.2-0.1c0.2,0,0.5,0,0.7,0l0.2,4.1c0,0.5,0.4,0.9,1,1.2c0.3,0.2,0.7,0.3,1,0.3
						c0.2,0,0.4-0.1,0.6-0.2l3.5-2.1c0.5,0.7,0.9,1.4,1.3,2.2l-3.4,2c-0.4,0.2-0.7,0.8-0.7,1.4c0,0.7,0.2,1.2,0.6,1.5l3.4,2.2
						C433.8,320.8,433.6,321.3,433.3,321.7z"/>
				</g>
				<g>
					<path class="st2" d="M426,327.4c-5.9,0-10.8-4.8-10.8-10.8c0-5.9,4.8-10.8,10.8-10.8c5.9,0,10.8,4.8,10.8,10.8
						C436.8,322.6,431.9,327.4,426,327.4z M426,308.2c-4.7,0-8.5,3.8-8.5,8.5s3.8,8.5,8.5,8.5c4.7,0,8.5-3.8,8.5-8.5
						S430.7,308.2,426,308.2z"/>
				</g>
			</g>
		</g>
		<g>
			<g>
				<g>
					<path class="st2" d="M400.7,313.2c-1.9,0-3.4,1.5-3.4,3.4c0,1.9,1.5,3.4,3.4,3.4c1.9,0,3.4-1.5,3.4-3.4
						C404.2,314.8,402.6,313.2,400.7,313.2z M400.7,319.3c-1.5,0-2.7-1.2-2.7-2.7c0-1.5,1.2-2.7,2.7-2.7c1.5,0,2.7,1.2,2.7,2.7
						C403.4,318.1,402.2,319.3,400.7,319.3z"/>
				</g>
				<g>
					<path class="st2" d="M409.6,313c-1.5-3.5-4.9-5.9-8.9-5.9c-0.4,0-0.8,0-1.2,0.1v0l0,0c-3.3,0.4-6.1,2.5-7.5,5.3l-0.3,0.8
						c-0.4,1.1-0.7,2.2-0.7,3.5c0,1.1,0.2,2.2,0.6,3.2l0.1,0.3c1.4,3.6,4.9,6.2,9,6.2c3.8,0,7.1-2.3,8.7-5.5l0,0l0,0
						c0.6-1.2,0.9-2.6,0.9-4.1c0-1.2-0.2-2.4-0.7-3.5L409.6,313z M409.4,317l-0.5,2.6l-3.1-2c-0.1-0.1-0.3-0.4-0.3-0.8
						c0-0.4,0.2-0.7,0.3-0.8l3.2-1.8L409.4,317z M407,310.7l-3.1,1.9v0c-0.1,0.1-0.5,0.1-0.8-0.1c-0.4-0.2-0.6-0.5-0.6-0.6l-0.2-3.6
						l2.7,1L407,310.7z M398.8,311.9c0,0.2-0.2,0.4-0.5,0.7c-0.4,0.2-0.7,0.3-0.8,0.2l-3.2-1.7l2.2-1.8l2.4-1L398.8,311.9z
						 M392,316.1l0.5-2.6l3.1,2l0,0c0.1,0.1,0.3,0.4,0.3,0.8c0,0.4-0.2,0.7-0.3,0.8l-3.2,1.8L392,316.1z M396.4,323.9l-2-1.6
						l3.2-1.8c0.1-0.1,0.5,0,0.8,0.2c0.4,0.2,0.6,0.5,0.6,0.6l0.1,3.6L396.4,323.9z M402.8,321.4c0-0.2,0.2-0.4,0.5-0.7
						c0.4-0.2,0.7-0.3,0.8-0.2l3.3,1.6l-2.2,1.8l-2.4,1L402.8,321.4z M408.1,321.7l-3.6-1.8c-0.4-0.2-1-0.1-1.6,0.2
						c-0.6,0.4-0.9,0.8-0.9,1.3l0.1,4c-0.4,0.1-0.9,0.1-1.3,0.1c-0.3,0-0.6,0-1-0.1l-0.1-4.2c0-0.5-0.4-0.9-0.9-1.3
						c-0.6-0.3-1.2-0.4-1.6-0.2l-3.6,2c-0.5-0.6-0.8-1.4-1.1-2.1l3.4-2c0.4-0.2,0.7-0.8,0.7-1.4c0-0.7-0.2-1.2-0.6-1.5l-3.2-2.1
						c0.2-0.5,0.5-0.9,0.8-1.3l3.6,1.9c0.2,0.1,0.3,0.1,0.5,0.1c0.3,0,0.7-0.1,1-0.3c0.6-0.3,0.9-0.8,0.9-1.3l0-4
						c0.4,0,0.8-0.1,1.2-0.1c0.2,0,0.5,0,0.7,0l0.2,4.1c0,0.5,0.4,0.9,1,1.2c0.3,0.2,0.7,0.3,1,0.3c0.2,0,0.4-0.1,0.6-0.2l3.5-2.1
						c0.5,0.7,0.9,1.4,1.3,2.2l-3.4,2c-0.4,0.2-0.7,0.8-0.7,1.4c0,0.7,0.2,1.2,0.6,1.5l3.4,2.2C408.6,320.8,408.4,321.3,408.1,321.7
						z"/>
				</g>
				<g>
					<path class="st2" d="M400.7,327.4c-5.9,0-10.8-4.8-10.8-10.8c0-5.9,4.8-10.8,10.8-10.8c5.9,0,10.8,4.8,10.8,10.8
						C411.5,322.6,406.7,327.4,400.7,327.4z M400.7,308.2c-4.7,0-8.5,3.8-8.5,8.5s3.8,8.5,8.5,8.5c4.7,0,8.5-3.8,8.5-8.5
						S405.4,308.2,400.7,308.2z"/>
				</g>
			</g>
		</g>
		<g>
			<g>
				<g>
					<path class="st2" d="M476.5,313.2c-1.9,0-3.4,1.5-3.4,3.4c0,1.9,1.5,3.4,3.4,3.4c1.9,0,3.4-1.5,3.4-3.4
						C479.9,314.8,478.3,313.2,476.5,313.2z M476.5,319.3c-1.5,0-2.7-1.2-2.7-2.7c0-1.5,1.2-2.7,2.7-2.7c1.5,0,2.7,1.2,2.7,2.7
						C479.1,318.1,477.9,319.3,476.5,319.3z"/>
				</g>
				<g>
					<path class="st2" d="M485.3,313c-1.5-3.5-4.9-5.9-8.9-5.9c-0.4,0-0.8,0-1.2,0.1v0l0,0c-3.3,0.4-6.1,2.5-7.5,5.3l-0.3,0.8
						c-0.4,1.1-0.7,2.2-0.7,3.5c0,1.1,0.2,2.2,0.6,3.2l0.1,0.3c1.4,3.6,4.9,6.2,9,6.2c3.8,0,7.1-2.3,8.7-5.5l0,0l0,0
						c0.6-1.2,0.9-2.6,0.9-4.1c0-1.2-0.2-2.4-0.7-3.5L485.3,313z M485.1,317l-0.5,2.6l-3.1-2c-0.1-0.1-0.3-0.4-0.3-0.8
						c0-0.4,0.2-0.7,0.3-0.8l3.2-1.8L485.1,317z M482.7,310.7l-3.1,1.9v0c-0.1,0.1-0.5,0.1-0.8-0.1c-0.4-0.2-0.6-0.5-0.6-0.6
						l-0.2-3.6l2.7,1L482.7,310.7z M474.6,311.9c0,0.2-0.2,0.4-0.5,0.7c-0.4,0.2-0.7,0.3-0.8,0.2l-3.2-1.7l2.2-1.8l2.4-1
						L474.6,311.9z M467.7,316.1l0.5-2.6l3.1,2l0,0c0.1,0.1,0.3,0.4,0.3,0.8c0,0.4-0.2,0.7-0.3,0.8l-3.2,1.8L467.7,316.1z
						 M472.1,323.9l-2-1.6l3.2-1.8c0.1-0.1,0.5,0,0.8,0.2c0.4,0.2,0.6,0.5,0.6,0.6l0.1,3.6L472.1,323.9z M478.5,321.4
						c0-0.2,0.2-0.4,0.5-0.7c0.4-0.2,0.7-0.3,0.8-0.2l3.3,1.6l-2.2,1.8l-2.4,1L478.5,321.4z M483.8,321.7l-3.6-1.8
						c-0.4-0.2-1-0.1-1.6,0.2c-0.6,0.4-0.9,0.8-0.9,1.3l0.1,4c-0.4,0.1-0.9,0.1-1.3,0.1c-0.3,0-0.6,0-1-0.1l-0.1-4.2
						c0-0.5-0.4-0.9-0.9-1.3c-0.6-0.3-1.2-0.4-1.6-0.2l-3.6,2c-0.5-0.6-0.8-1.4-1.1-2.1l3.4-2c0.4-0.2,0.7-0.8,0.7-1.4
						c0-0.7-0.2-1.2-0.6-1.5l-3.2-2.1c0.2-0.5,0.5-0.9,0.8-1.3l3.6,1.9c0.2,0.1,0.3,0.1,0.5,0.1c0.3,0,0.7-0.1,1-0.3
						c0.6-0.3,0.9-0.8,0.9-1.3l0-4c0.4,0,0.8-0.1,1.2-0.1c0.2,0,0.5,0,0.7,0l0.2,4.1c0,0.5,0.4,0.9,1,1.2c0.3,0.2,0.7,0.3,1,0.3
						c0.2,0,0.4-0.1,0.6-0.2l3.5-2.1c0.5,0.7,0.9,1.4,1.3,2.2l-3.4,2c-0.4,0.2-0.7,0.8-0.7,1.4c0,0.7,0.2,1.2,0.6,1.5l3.4,2.2
						C484.3,320.8,484.1,321.3,483.8,321.7z"/>
				</g>
				<g>
					<path class="st2" d="M476.5,327.4c-5.9,0-10.8-4.8-10.8-10.8c0-5.9,4.8-10.8,10.8-10.8c5.9,0,10.8,4.8,10.8,10.8
						C487.2,322.6,482.4,327.4,476.5,327.4z M476.5,308.2c-4.7,0-8.5,3.8-8.5,8.5s3.8,8.5,8.5,8.5c4.7,0,8.5-3.8,8.5-8.5
						S481.1,308.2,476.5,308.2z"/>
				</g>
			</g>
		</g>
		<path class="st2" d="M276.4,269.5l-10.8,55.1c-0.4,1.9-1.3,3.7-2.6,5.1l-12.3,13.8c-1.4,1.6,0,4.1,2.1,3.7l53.2-9l9.1-77.2
			c0.1-1.1-0.2-2.3-1-3.1L300,242.3c-0.7-0.8-2-0.8-2.7,0.1L278.1,266C277.2,267,276.6,268.2,276.4,269.5z"/>
		<g>
			<path class="st1" d="M459.4,326.4l-147.4-14.5c-1.6-0.2-2.7-1.5-2.5-2.9l0.6-5c0.2-1.5,1.6-2.5,3.1-2.4L460.5,316
				c1.6,0.2,2.7,1.5,2.5,2.9l-0.6,5C462.3,325.4,460.9,326.5,459.4,326.4z"/>
			<path class="st1" d="M302.3,307c-1.1-0.7-0.9-2.3,0.3-2.8l4.1-1.5l4.4-1.7c1.2-0.4,2.4,0.5,2.3,1.7l-0.5,4l-0.5,4
				c-0.1,1.2-1.6,1.8-2.6,1.1l-3.9-2.5L302.3,307z"/>
			<path class="st2" d="M311.8,306.1c0,1.6-1.3,2.8-3,2.8c-1.7,0-3-1.3-3-2.8s1.3-2.8,3-2.8C310.5,303.3,311.8,304.5,311.8,306.1z"
				/>
		</g>
		<g>
			<path class="st1" d="M385.7,317.2l-74.1-49.5c-0.8-0.5-1-1.5-0.5-2.3l1.7-2.5c0.5-0.7,1.5-0.9,2.3-0.4l74.1,49.5
				c0.8,0.5,1,1.5,0.5,2.3l-1.7,2.5C387.5,317.6,386.5,317.8,385.7,317.2z"/>
			<path class="st1" d="M307.8,262.4c-0.4-0.7,0.2-1.5,1-1.4l2.6,0.3l2.8,0.4c0.7,0.1,1.2,0.9,0.7,1.5l-1.4,2l-1.4,2
				c-0.4,0.6-1.3,0.5-1.7-0.1l-1.4-2.5L307.8,262.4z"/>
			<path class="st2" d="M313.1,264.7c-0.4,0.8-1.5,1.1-2.4,0.7c-0.9-0.5-1.2-1.5-0.8-2.3c0.4-0.8,1.5-1.1,2.4-0.7
				C313.2,262.8,313.6,263.8,313.1,264.7z"/>
		</g>
		<path class="st7" d="M419.1,281.2c0,3.2-2.6,5.8-5.8,5.8c-3.2,0-5.8-2.6-5.8-5.8c0-3.2,2.6-5.8,5.8-5.8
			C416.5,275.3,419.1,278,419.1,281.2z"/>
		<path class="st7" d="M468.4,281.2c0,3.2-2.6,5.8-5.8,5.8c-3.2,0-5.8-2.6-5.8-5.8c0-3.2,2.6-5.8,5.8-5.8
			C465.8,275.3,468.4,278,468.4,281.2z"/>
		<rect x="410.3" y="281.2" class="st3" width="6" height="27"/>
		<rect x="459.6" y="281.2" class="st3" width="6" height="27"/>
		<rect x="348.2" y="225.2" class="st1" width="72.1" height="21.8"/>
		<g>
			<rect x="357.3" y="228.5" class="st4" width="2.6" height="15.3"/>
			<rect x="363.1" y="228.5" class="st4" width="2.6" height="15.3"/>
			<rect x="369" y="228.5" class="st4" width="2.6" height="15.3"/>
			<rect x="374.9" y="228.5" class="st4" width="2.6" height="15.3"/>
			<rect x="380.7" y="228.5" class="st4" width="2.6" height="15.3"/>
			<rect x="386.6" y="228.5" class="st4" width="2.6" height="15.3"/>
			<rect x="392.5" y="228.5" class="st4" width="2.6" height="15.3"/>
			<rect x="398.3" y="228.5" class="st4" width="2.6" height="15.3"/>
			<rect x="404.2" y="228.5" class="st4" width="2.6" height="15.3"/>
			<rect x="410.1" y="228.5" class="st4" width="2.6" height="15.3"/>
		</g>
		<rect x="346.9" y="217" class="st1" width="72.1" height="2.3"/>
		<path class="st1" d="M337.9,257c0,1.3-1,2.3-2.3,2.3c-1.3,0-2.3-1-2.3-2.3c0-1.3,1-2.3,2.3-2.3C336.8,254.7,337.9,255.7,337.9,257
			z"/>
		<path class="st1" d="M354.5,257c0,1.3-1,2.3-2.3,2.3c-1.3,0-2.3-1-2.3-2.3c0-1.3,1-2.3,2.3-2.3C353.5,254.7,354.5,255.7,354.5,257
			z"/>
		<path class="st1" d="M346.3,257c0,1.3-1,2.3-2.3,2.3c-1.3,0-2.3-1-2.3-2.3c0-1.3,1-2.3,2.3-2.3C345.3,254.7,346.3,255.7,346.3,257
			z"/>
		<line class="st8" x1="425" y1="209.8" x2="425" y2="209.8"/>
		<path class="st9" d="M503.2,233.7c0,0-5,0-6.8,0H486c-1.1,0-2.1-0.5-2.7-1.4l-1.6-2.3l-4.4-6.3l-6.8-9.9l-0.9-1.2
			c-0.4-0.5-0.6-1.1-0.6-1.8v-43.6c0-1.7,1.4-3.2,3.2-3.2h24c1.8,0,3.2,1.4,3.2,3.2l0.4,6.5l0.5,10.1l0.9,15.9l0.5,10.1L503.2,233.7
			z"/>
		<path class="st9" d="M462.6,168.2v35.5c0,1.6-1.3,2.8-2.8,2.8h-18.8c-2.1,0-3.4-2.1-2.6-4l1.4-2.9l9.1-19.8l5.9-12.8
			c0.5-1,1.5-1.6,2.6-1.6h2.4c1,0,1.8,0.5,2.3,1.2C462.4,167,462.6,167.6,462.6,168.2z"/>
		<polygon class="st2" points="481.5,241.7 432.2,241.7 432.2,214.7 464.3,214.7 		"/>
		<path class="st10" d="M500.5,183.9l-29.9,29.9l-0.9-1.2c-0.4-0.5-0.6-1.1-0.6-1.8v-6.2l30.8-30.8L500.5,183.9z"/>
		<path class="st10" d="M462.6,168.2v8.6l-22.9,22.9l9.1-19.8l13.3-13.3C462.4,167,462.6,167.6,462.6,168.2z"/>
		<polygon class="st10" points="501.9,209.9 481.8,230.1 477.4,223.7 501.4,199.8 		"/>
		<rect x="453.7" y="159.6" class="st4" width="48.2" height="3"/>
		<rect x="425.1" y="216.8" class="st4" width="4.5" height="4.5"/>
		<rect x="337.9" y="216.8" class="st4" width="4.5" height="4.5"/>
		<g>
			<rect x="403.6" y="193.8" class="st4" width="6.9" height="15.9"/>
			<polygon class="st4" points="407.1,190.4 410.1,193 413,195.5 407.1,195.5 401.1,195.5 404.1,193 			"/>
		</g>
		<rect x="432.6" y="245.2" class="st0" width="80.8" height="9.5"/>
	</g>
</g>
</svg>
