<?xml version="1.0" encoding="utf-8"?>
<!-- Generator: Adobe Illustrator 27.5.0, SVG Export Plug-In . SVG Version: 6.00 Build 0)  -->
<svg version="1.1" id="Layer_1" xmlns="http://www.w3.org/2000/svg" xmlns:xlink="http://www.w3.org/1999/xlink" x="0px" y="0px"
	 viewBox="0 0 4000 4000" style="enable-background:new 0 0 4000 4000;" xml:space="preserve">
<style type="text/css">
	.st0{opacity:0.2;}
	.st1{fill:#232333;}
	.st2{fill:#C0C4D0;}
	.st3{opacity:0.3;}
	.st4{opacity:0.6;}
	.st5{fill:#FFFFFF;}
	.st6{fill:#FC75AC;}
	.st7{fill:#FA5CB5;}
</style>
<g>
	<g>
		<g class="st0">
			<ellipse class="st1" cx="2056.6" cy="3244.9" rx="917.3" ry="122.3"/>
		</g>
		<g>
			<path class="st2" d="M3088.3,2977.9c-5.2,34.9-14.4,71-27.3,104.1c-40.1,103.5-142.4,157.8-220,135.3s-129-51.3-253-50.1
				c-90.8,0.9-227.2-3.6-293.7-6c-71.6,18.3-151.5,27.9-237.6,31.1c-86.2-3.2-166.1-12.8-237.7-31.1c-2.2,0.1-4.4,0.1-6.7,0.2
				c-4.1,0.2-8.5,0.3-13,0.5c-71.1,2.5-191.4,6.1-274,5.3c-124-1.3-175.3,27.6-253,50.1s-180-31.7-220.1-135.3
				c-3-7.8-5.8-15.7-8.4-23.8c-32.1-99-33.3-214.3,8.4-246.7c45.1-35.1,147.8-45.9,248-67.6c70.6-15.3,123.5-90.9,148.7-134.4
				c1.9-39.2,6-81,12.5-125.2l319.2-477.6l276.1,106.8l276-106.8l311,465.3l8.2,12.3c6.4,44.3,10.6,86,12.5,125.2
				c1,1.7,2,3.4,3.1,5.2c26.3,44,77.8,114.5,145.6,129.2c100.2,21.7,202.9,32.6,248,67.6C3091.7,2835.4,3099.2,2903.9,3088.3,2977.9
				z"/>
		</g>
		<g class="st3">
			<path class="st1" d="M2067.5,2201.4c0,0-104.4-6-144.4,80.8c-40.1,86.8-108.5,288.9-217.1,370.7
				c-108.5,81.8-229.9,76.8-255.2-74.3c-25.3-151.1,266.4-296.4,266.4-296.4l182.5-105.2"/>
		</g>
		<g class="st3">
			<path class="st1" d="M3088.3,2977.9c-5.2,34.9-14.4,71-27.3,104.1c-40.1,103.5-142.4,157.8-220,135.3s-129-51.3-253-50.1
				c-90.8,0.9-227.2-3.6-293.7-6c-71.6,18.3-151.5,27.9-237.6,31.1c-86.2-3.2-166.1-12.8-237.7-31.1c-2.2,0.1-4.4,0.1-6.7,0.2
				c-41.8-19.2-74.4-34.3-76.8-35.5c439.8,88.8,828.1-101.6,661.7-621.9l246.6-32.1l21.1-2.8c0,0,3,71.5,2.6,145.5
				c-0.2,31-0.9,62.4-2.6,89.2c0,0,0,0.1,0,0.2c-1.5,23.1-3.8,42.8-7.2,55.7c0,0,0.2,0.2,0.7,0.5c-9.1,43.5-30.8,105.8-82.4,163.2
				c0,0,164.1,121.8,259.5,0c0,0-20.9,194,86.8,208.1c0.1,0,0.1,0,0.1,0C2964.6,3143.8,3025.2,3101.8,3088.3,2977.9z"/>
		</g>
		<g>
			<path class="st1" d="M2895.9,3233.8c-34.7,0-56.9-17.3-70.3-34.3c-57.7-73.1-35.7-238.7,22.6-338c26.4-45,60.5-72.5,101.3-81.8
				c65.6-15,123.6,23.3,126,24.9c6.9,4.6,8.7,14,4.1,20.8c-4.6,6.9-13.9,8.7-20.8,4.1l0,0c-0.5-0.3-50.1-32.7-102.8-20.6
				c-32.3,7.5-59.8,30.2-81.8,67.7c-57,97.2-69.4,247.8-24.9,304.1c17.7,22.4,42.6,28.3,76.3,18c7.9-2.4,16.3,2,18.8,10
				c2.4,7.9-2,16.3-10,18.8C2920,3231.9,2907.3,3233.8,2895.9,3233.8z"/>
		</g>
		<g>
			<path class="st1" d="M2919.7,2884.4c-14,0-34.1-6.4-51.7-36.1c-4.2-7.1-1.9-16.4,5.3-20.6c7.1-4.2,16.4-1.9,20.6,5.3
				c5.6,9.4,17,24.7,30.2,20.7c14.5-4.3,28.8-28.6,27.6-61.9c-0.3-8.1,5.8-14.9,13.8-15.5c8.1-0.7,15.1,5.2,16.1,13.2
				c4.8,40.3,16.4,57.3,24.9,59.7c3.9,1.1,19,1.6,48.7-36.8c5.1-6.6,14.5-7.8,21.1-2.7c6.6,5.1,7.8,14.5,2.7,21.1
				c-29.8,38.6-56.1,54.1-80.5,47.4c-12.3-3.4-22.5-12.4-30.3-26.5c-8.7,15.5-21,26.7-35.6,31
				C2929.5,2883.5,2925,2884.4,2919.7,2884.4z"/>
		</g>
		<g>
			<path class="st1" d="M3084.3,2951.2c-21,0-42.7-13-53.3-33.2c-7.6-14.5-19.3-53.3,35.8-99.1c6.4-5.3,15.8-4.4,21.2,1.9
				c5.3,6.4,4.4,15.8-1.9,21.2c-26.9,22.4-37.3,45.1-28.3,62.1c6.6,12.5,22,19,31.3,16.5c8-2.2,16.3,2.5,18.5,10.5
				c2.2,8-2.5,16.3-10.5,18.5C3092.9,2950.7,3088.6,2951.2,3084.3,2951.2z"/>
		</g>
		<g>
			<path class="st1" d="M1234.8,3240c-80.5,0-163.8-60.8-199-151.7c-41.1-106.3-48.7-248.4,5.6-290.7
				c37.4-29.1,104.8-41.9,182.7-56.6c23.7-4.5,48.1-9.1,72.3-14.3c62-13.4,110.5-80.9,135.1-122.4c2-38.4,6.1-79.6,12.4-122.6
				c0.4-2.6,1.3-5,2.8-7.2l319.2-477.6c4.6-6.8,13.2-9.6,20.9-6.6l269.7,104.4l269.7-104.4c7.7-3,16.3-0.2,20.9,6.6l319.2,477.6
				c1.5,2.2,2.4,4.6,2.8,7.2c6.3,43,10.5,84.2,12.4,122.6c24.6,41.6,73.1,109,135.1,122.4c24.2,5.2,48.6,9.9,72.3,14.3
				c77.9,14.7,145.3,27.5,182.7,56.6c54.3,42.2,46.7,184.4,5.6,290.7c-41.4,107-149.6,172.4-241.2,145.8
				c-17.2-5-33.1-10.3-48.4-15.4c-54.2-18-105.3-35.2-199.5-34c-89,0.9-220.1-3.3-292.1-5.9c-69.2,17.4-147.4,27.6-238.9,31
				c-0.4,0-0.9,0-1.3,0c-91.5-3.4-169.7-13.5-238.9-31c-72,2.6-203.1,6.8-292.1,5.9c-94.2-1-145.3,16-199.5,34
				c-15.4,5.1-31.3,10.4-48.4,15.4C1263.3,3238.1,1249.1,3240,1234.8,3240z M2595.9,3149.6c94.9,0,147.4,17.4,202.8,35.9
				c15.1,5,30.6,10.2,47.2,15c65.3,18.9,160.8-26.6,198.8-124.7c38.9-100.6,41.7-222.3,5.6-250.3c-30.8-23.9-97.3-36.5-167.7-49.8
				c-23.9-4.5-48.6-9.2-73.2-14.5c-77-16.7-133.4-96.6-160.1-142.7c-1.4-2.4-2.2-5.2-2.3-8c-1.8-37.3-5.7-77.5-11.7-119.6
				l-309.2-462.6L2063,2129.8c-4.1,1.6-8.6,1.6-12.7,0l-263-101.7l-309.2,462.6c-6,42.1-10,82.3-11.7,119.6c-0.1,2.8-0.9,5.5-2.3,8
				c-26.7,46.1-83.1,126.1-160.1,142.7c-24.6,5.3-49.3,10-73.2,14.5c-70.4,13.3-136.9,25.9-167.7,49.8
				c-36.1,28.1-33.4,149.7,5.6,250.3c38,98.1,133.4,143.7,198.8,124.7c16.5-4.8,32.1-10,47.2-15c57-18.9,110.8-36.9,210.9-35.8
				c89.3,0.8,221.9-3.4,292.9-6c1.7-0.1,3.4,0.1,5,0.5c67.2,17.2,143.5,27.1,233.4,30.5c89.8-3.4,166.1-13.3,233.3-30.5
				c1.6-0.4,3.3-0.6,5-0.5c71.1,2.6,203.6,6.9,292.9,6C2590.6,3149.6,2593.3,3149.6,2595.9,3149.6z"/>
		</g>
		<g>
			<path class="st1" d="M1217.4,3233.8c-11.4,0-24.1-1.9-38.4-6.2c-7.9-2.4-12.4-10.8-10-18.8c2.4-7.9,10.8-12.4,18.8-10
				c33.7,10.3,58.6,4.4,76.3-18c44.5-56.3,32.1-207-24.9-304.1c-22-37.5-49.5-60.2-81.8-67.7c-52.8-12.2-102.3,20.2-102.8,20.6
				c-6.9,4.6-16.2,2.7-20.8-4.2c-4.6-6.9-2.8-16.2,4.1-20.8c2.4-1.6,60.4-39.9,126-24.9c40.8,9.3,74.9,36.9,101.3,81.8
				c58.3,99.2,80.3,264.8,22.6,338C1274.4,3216.4,1252.2,3233.8,1217.4,3233.8z"/>
		</g>
		<g>
			<path class="st1" d="M1193.6,2884.4c-5.3,0-9.8-0.9-12.9-1.8c-14.6-4.3-26.9-15.5-35.6-31c-7.8,14.2-18,23.1-30.3,26.5
				c-24.3,6.7-50.6-8.8-80.5-47.4c-5.1-6.6-3.9-16,2.7-21.1c6.6-5.1,16-3.9,21.1,2.7c29.7,38.4,44.8,37.8,48.7,36.8
				c8.4-2.3,20-19.4,24.9-59.7c1-8,8.1-13.9,16.1-13.2c8,0.6,14.1,7.5,13.8,15.5c-1.3,33.3,13,57.6,27.6,61.9
				c13.3,3.9,24.7-11.3,30.2-20.7c4.2-7.1,13.4-9.5,20.6-5.3c7.1,4.2,9.5,13.5,5.3,20.6C1227.7,2878,1207.6,2884.4,1193.6,2884.4z"
				/>
		</g>
		<g>
			<path class="st1" d="M1029,2951.2c-4.3,0-8.5-0.5-12.6-1.7c-8-2.2-12.7-10.5-10.5-18.5c2.2-8,10.5-12.7,18.5-10.5
				c9.4,2.6,24.8-3.9,31.3-16.5c8.9-17.1-1.4-39.7-28.3-62.1c-6.4-5.3-7.2-14.8-1.9-21.2c5.3-6.4,14.8-7.2,21.2-1.9
				c55.1,45.8,43.3,84.6,35.8,99.1C1071.7,2938.3,1049.9,2951.2,1029,2951.2z"/>
		</g>
		<g>
			<path class="st2" d="M1638.8,1113.7c0,0-9.7,43.8-21.7,99.3c-18.5,85.4-42.5,198.2-45.1,221c-4.2,37.7-28.4,435.8-70.1,479.2
				c-41.8,43.4-180.3,76.8-262.8,6.7c-82.6-70.1-89.5-138.6-209.7-180.3c-35.6-12.3-66.9-26.3-93-43c0-0.1,0-0.1,0-0.1
				c-62.1-39.7-94.5-94.7-84-180.2c15.1-121.4,146.9-421.3,357.3-566.6s418.1,24.5,418.1,24.5L1638.8,1113.7z"/>
		</g>
		<g class="st4">
			<path class="st5" d="M1629.2,992.5c-51.1-35.1-226.2-135.8-403.2-13.6c-210.4,145.3-342.2,445.1-357.3,566.6
				c-4.8,38.9-0.7,71.5,11.1,99.2c-23.8-33.4-34.1-74.9-27.5-128.4c15.1-121.4,146.9-421.3,357.3-566.6s418.1,24.5,418.1,24.5
				L1629.2,992.5z"/>
		</g>
		<g>
			<path class="st6" d="M1617.1,1213c-18.5,85.4-42.5,198.2-45.1,221c-0.8,7-2.3,26.5-4.4,54c-9.4,119.7-31.7,389.9-65.7,425.2
				c-41.8,43.4-180.3,76.8-262.8,6.7c-82.6-70.1-89.5-138.6-209.7-180.3c-35.6-12.3-66.9-26.3-93-43c0-0.1,0-0.1,0-0.1
				c-5.1-8.2-9.6-16.7-13.4-25.5c-61.1-141.6,36.9-371.3,232.5-557.2c207.9-197.5,366-21.3,366-21.3L1617.1,1213z"/>
		</g>
		<g class="st3">
			<path class="st1" d="M1567.6,1488c-9.4,119.7-31.7,389.9-65.7,425.2c-41.8,43.4-180.3,76.8-262.8,6.7
				c-82.6-70.1-89.5-138.6-209.7-180.3c-35.6-12.3-66.9-26.3-93-43c0-0.1,0-0.1,0-0.1c-5.1-8.2-9.6-16.7-13.4-25.5
				c73.6,52.8,222,32.3,282.1,101.1s129,115.2,103.9,34.9c-25-80.3,71.4-294.2,71.4-294.2L1567.6,1488z"/>
		</g>
		<g class="st3">
			<path class="st1" d="M1617.1,1213c-3.6,16.6-7.4,34.3-11.2,52.1l-62.7-79c0,0-158.1-176.2-366,21.3
				c-159.9,151.9-254.6,333.2-250.5,471.7c-68.6-140.9,29.3-375.9,228.7-565.4c207.9-197.5,366-21.3,366-21.3L1617.1,1213z"/>
		</g>
		<g>
			<path class="st2" d="M3177,1696.5C3177,1696.5,3177,1696.5,3177,1696.5c-26.1,16.7-57.5,30.7-93,43
				c-120.2,41.7-127.2,110.2-209.7,180.3c-82.5,70.1-221.1,36.7-262.8-6.7c-41.7-43.4-65.9-441.5-70.1-479.2
				c-2.3-20.8-22.5-116.7-40.2-198.2c-14.1-65.7-26.6-122.1-26.6-122.1l11.1-139.5c0,0,207.7-169.8,418.1-24.5
				s342.2,445.1,357.3,566.6C3271.5,1601.8,3239,1656.8,3177,1696.5z"/>
		</g>
		<g class="st4">
			<path class="st5" d="M3255.3,1484.7c-42.5-142.6-164.2-375.9-342.1-498.7c-210.4-145.3-418.1,24.5-418.1,24.5L2484,1150
				c0,0,12.5,56.4,26.6,122.1c17.6,81.5,37.9,177.4,40.2,198.2c3.4,30,19.4,288.9,46.8,414.8c-33.4-102.4-52.7-417.8-56.4-451.1
				c-2.3-20.8-22.5-116.7-40.2-198.2c-14.1-65.7-26.6-122.1-26.6-122.1l11.1-139.5c0,0,207.7-169.8,418.1-24.5
				C3097.6,1083.6,3224.8,1348.9,3255.3,1484.7z"/>
		</g>
		<g>
			<path class="st6" d="M3194,1661.8c-4.6,12.2-10.2,23.7-17,34.7c0,0,0,0,0,0.1c-26.1,16.7-57.5,30.7-93,43
				c-120.2,41.7-127.2,110.2-209.7,180.3c-82.5,70.1-221.1,36.7-262.8-6.7c-20.1-20.9-36.2-124.5-47.8-230.3
				c-12.6-113.4-20.1-229.4-22.2-248.9c-2.3-20.8-22.5-116.7-40.2-198.2l90.8-143.4c0,0,158.1-176.2,366,21.3
				C3149.4,1295.6,3247.3,1519.6,3194,1661.8z"/>
		</g>
		<g class="st3">
			<path class="st1" d="M3202.9,1564.5l-7.5,84.9l-1.4,12.5c-4.6,12.2-10.2,23.7-17,34.7c0,0,0,0,0,0.1c-26.1,16.7-57.5,30.7-93,43
				c-120.2,41.7-127.2,110.2-209.7,180.3c-82.5,70.1-221.1,36.7-262.8-6.7c-20.1-20.9-36.2-124.5-47.8-230.3
				c90.3-24.6,191.5-12.1,207.8,63.3c31.7,147,170.3-30.1,302.2-63.4C3178.9,1656.1,3199,1590,3202.9,1564.5z"/>
		</g>
		<g class="st3">
			<path class="st1" d="M3203.8,1626.9c-20.6-127.5-109.5-278.4-245.9-408c-207.9-197.5-366-21.3-366-21.3l-73.9,116.8
				c-5.5-25.7-11.3-52.9-16.8-78.6l90.8-143.4c0,0,158.1-176.2,366,21.3C3134.4,1281.4,3231.3,1484.7,3203.8,1626.9z"/>
		</g>
		<g>
			<path class="st1" d="M1360.2,1977.7c-46.7,0-94.8-12.4-132.5-44.5c-30.6-26-51.6-52.3-70.1-75.4c-32.9-41-61.2-76.5-134-101.7
				c-97.6-33.9-207.2-92-188.6-242c15.9-128.3,151.4-431.5,364.8-578.8c90.6-62.6,195.4-78,303.1-44.5c80.5,25,133.8,68.1,136,69.9
				c7.5,6.1,8.6,17.2,2.5,24.7c-6.1,7.5-17.2,8.6-24.7,2.5c-1.1-0.9-51.5-41.2-125.4-63.9c-98-30.1-189.4-16.6-271.6,40.2
				c-201.9,139.4-335.1,434.9-349.9,554.2c-12.4,100.2,35.5,159.5,165.3,204.6c82.3,28.6,115.1,69.6,149.8,112.9
				c18.4,23,37.4,46.8,65.5,70.6c73,62,202.1,32.8,238.9-5.5c4.4-4.6,20.2-31.2,38.6-181.4c11.1-90.8,19.1-192.2,23.3-246.6
				c1.6-21,2.7-34.9,3.4-41c4.3-38.1,64.6-310.6,67.1-322.1c2.1-9.5,11.5-15.4,20.9-13.3c9.5,2.1,15.4,11.5,13.3,20.9
				c-21.6,97.5-63.3,289.4-66.5,318.5c-0.6,5.5-1.7,19.9-3.3,39.8c-22.7,290-43.4,420.2-71.6,449.5
				C1487.3,1953.6,1425.2,1977.7,1360.2,1977.7z"/>
		</g>
		<g>
			<path class="st1" d="M936.3,1711.5c-5,0-9.9-2.5-12.8-7.1c-88.9-142.2,4.3-395.3,221.5-601.6c71.3-67.7,145-100.6,219.1-97.6
				c101.6,4.1,165.7,74.2,168.4,77.2c5.5,6.2,5,15.7-1.1,21.2c-6.2,5.5-15.7,5-21.2-1.1l0,0c-0.6-0.6-58.8-63.9-147.6-67.2
				c-65.5-2.5-131.8,27.6-196.8,89.4c-99.8,94.8-176.6,204.2-216.2,308.1c-39.2,102.8-39.4,193.6-0.5,255.8c4.4,7,2.3,16.3-4.8,20.7
				C941.8,1710.8,939,1711.5,936.3,1711.5z"/>
		</g>
		<g>
			<path class="st1" d="M2753.1,1977.7c-65,0-127.1-24-154.3-52.3c-28.2-29.3-48.9-159.5-71.6-449.5c-1.6-19.9-2.7-34.3-3.3-39.8
				c-3.2-29-44.9-221-66.5-318.5c-2.1-9.5,3.9-18.8,13.3-20.9c9.4-2.1,18.8,3.9,20.9,13.3c2.6,11.6,62.9,284,67.1,322.1
				c0.7,6.1,1.8,20,3.4,41c4.3,54.5,12.2,155.8,23.3,246.6c18.4,150.2,34.2,176.8,38.6,181.4c36.8,38.3,165.9,67.5,238.9,5.5
				c28-23.8,47.1-47.6,65.5-70.6c34.7-43.4,67.5-84.4,149.8-112.9c129.9-45.1,177.8-104.4,165.3-204.6
				c-14.8-119.3-148-414.8-349.9-554.2c-82.3-56.8-173.6-70.3-271.6-40.2c-74.3,22.8-124.9,63.5-125.4,63.9
				c-7.5,6.1-18.5,5-24.7-2.5c-6.1-7.5-5-18.5,2.5-24.6c2.2-1.8,55.5-44.9,136-69.9c107.7-33.4,212.5-18,303.1,44.5
				c213.4,147.3,348.9,450.5,364.8,578.8c18.6,150-91,208.1-188.6,242c-72.7,25.3-101.1,60.7-134,101.7
				c-18.5,23.2-39.5,49.4-70.1,75.4C2847.9,1965.3,2799.7,1977.7,2753.1,1977.7z"/>
		</g>
		<g>
			<path class="st1" d="M3177,1711.5c-2.7,0-5.5-0.7-7.9-2.3c-7-4.4-9.2-13.7-4.8-20.7c38.9-62.2,38.7-153.1-0.5-255.8
				c-39.6-103.9-116.4-213.3-216.2-308.1c-65.1-61.8-131.3-91.9-196.8-89.4c-88.8,3.4-147,66.6-147.6,67.2
				c-5.6,6.1-15.1,6.6-21.2,1.1c-6.2-5.5-6.7-15-1.1-21.2c2.7-3,66.7-73.1,168.4-77.2c74.1-3,147.8,29.9,219.1,97.6
				c217.2,206.4,310.4,459.4,221.5,601.6C3186.9,1709,3182,1711.5,3177,1711.5z"/>
		</g>
		<g>
			<path class="st2" d="M2056.6,2201.4c31.2,0,62.3-2.9,92.9-8.8c821.5-156.4,646.7-567.5,502.6-977.4
				c-140.9-400.7-595.5-384-595.5-384s-454.6-16.7-595.5,384c-144.1,409.9-318.9,821.1,502.6,977.4
				C1994.4,2198.5,2025.5,2201.4,2056.6,2201.4L2056.6,2201.4z"/>
		</g>
		<g class="st3">
			<path class="st1" d="M2090,1807c0,0,199.8-18.3,253.5-110.5c53.8-92.2,28.5-303.2-37.4-372.2s-18.6-54,20.4-112.4
				c39-58.4-60.8-110.2-60.8-110.2s-136.3-1.6-108.9,138.8c27.4,140.4,68.8,216.9,49.4,313.7c-19.4,96.8-84.9,162-93.9,173.7
				c-9,11.7-76.5,23.4-72.8,30.1"/>
		</g>
		<g class="st3">
			<path class="st1" d="M2149.5,2192.6c-30.6,5.9-61.7,8.8-92.9,8.8s-62.3-2.9-92.9-8.8c-307.9-58.6-475.8-153-557.8-269.7
				c90.9,77.1,238.1,139.8,466.1,182.3c29.1,5.5,58.7,8.2,88.3,8.2c29.7,0,59.3-2.8,88.4-8.2c781.4-145.8,615.1-529.4,478-911.7
				c-117.5-327.6-464.1-356.2-547.9-358.3c47.5-5.2,77.8-4.1,77.8-4.1s454.5-16.7,595.5,384
				C2796.2,1625.1,2971.1,2036.3,2149.5,2192.6z"/>
		</g>
		<g class="st4">
			<path class="st5" d="M2476.4,966.8c-179.1-122.1-390.5-114.4-390.5-114.4s-234.3-8.6-418.6,134.9
				c3.6,103.4-43.8,159.9-142.2,169.5c-13,24.5-24.6,51-34.7,79.6c-104.7,297.8-225.6,596.3,31.1,797.2
				c-294.6-200.7-168.8-510-60.3-818.5c140.9-400.7,595.5-384,595.5-384S2291.9,822.5,2476.4,966.8z"/>
		</g>
		<g>
			<path class="st2" d="M2296.2,1606.8c-23.2,87.7-87.4,159.2-176.5,191.3c-28.7,10.3-60,16.5-93.3,17.9
				c-15.4,0.6-31.2,0.2-47.4-1.3l-64.2-82.4l-86.1-110.5c0,0,41.3-144,210.4-124c-91.4-197.9-34.5-444.8,122.1-491.6
				c31.9-63.2,122.7-51.9,72.6,40.7c0,0,20.6,13.1,38.1,30.5c8.2,8.2,15.7,17.3,20.1,26.4c13.8,28.9-5,107.7-85.8,89
				c0,0-21.3,78.2,20.6,139.6S2330.4,1477.8,2296.2,1606.8z"/>
		</g>
		<g class="st4">
			<path class="st5" d="M2247.3,988.6c-20.3-8.4-52.8,4.3-69.4,37.2c-49.2,14.7-88.5,49.1-116.5,95.5c8.2,42.6-5.6,66.3-33.5,77.9
				c-27.4,95.2-20.5,213.5,27.8,318.1c-103.6-12.3-159.3,37.1-186.8,77.1l-37.1,18.4c12.4-31.1,63.9-132,207.2-115.1
				c-91.4-197.9-34.5-444.8,122.1-491.6C2184.3,960.5,2238.2,953.7,2247.3,988.6z"/>
		</g>
		<g>
			<path class="st1" d="M1828.7,1621.8c20.5-95.4,116.6-157.7,212.2-138.9c0,0-15.4,21.2-15.4,21.2c-68-145.8-68.5-366.8,64.3-476.9
				c19.9-15.7,42.7-27.9,67.1-35.3l-9.1,7.6c7.7-15.1,19.3-28.7,34.7-37.8c56.3-31.2,98,13.6,74.5,70.8c-2.8,7.7-6.3,14.7-9.9,21.7
				l-5.2-19.8c25.7,17.7,51.9,37.4,65.2,66.6c16.5,48.5-17.6,107.4-70.3,109.5c-11.8,0.9-23.2-0.4-33.9-2.9l17.9-10.7
				c-3.7,15.5-5.2,32.5-4.7,48.5c0.6,28.7,8,56.3,24.1,79.9c0,0,7.5,11,7.5,11c31.2,45,59.8,94.7,69.1,149.6
				c20,111.2-32.2,230.6-125.3,294.1c-61.5,41.5-141.8,53.7-212.5,34.7c78.3-5.7,153.1-28.6,214.6-76.6
				c66.6-51.8,102.3-138.5,96.8-222.1c-3.9-60.3-33.4-114.1-67.5-162.8c-4.9-7-10.9-16.1-15.2-23.4c-14.3-25.3-21.1-54.9-21.6-83.6
				c-0.5-14.3,0.6-28.5,2.8-42.6c0.9-4.8,1.6-9.2,3-14.6c2-7.6,9.5-12.3,17.1-10.8c34.7,9.3,65-5.6,71.2-41.7
				c2-11.8,1.7-22.4-4.9-31.7c-12.4-18.2-30.9-32.5-49.4-45.1c-6.6-4.3-8.7-13-5.2-19.8c5.8-11.1,11.2-23.3,12.6-35.3
				c3.6-25.4-17.2-27.7-35.5-17c-9.7,5.7-17.7,14.9-23.1,25.5c-1.9,3.8-5.3,6.5-9.1,7.6c-87.3,26.2-134.7,118.1-149,203.8
				c-15.3,89.7-1.6,184.3,36.2,267c5.1,10.3-4.2,22.8-15.4,21.2c-31.4-1-62.1-1.3-92.2,6.9
				C1893.4,1533.5,1851.5,1573.3,1828.7,1621.8L1828.7,1621.8z"/>
		</g>
		<g>
			<path class="st1" d="M2050.1,1487.5c21.1,28.1,48.6,54.6,82.5,66.6c-38.8-3-73.9-22.5-104.5-46.1
				C2011.1,1492.9,2035.9,1469.5,2050.1,1487.5L2050.1,1487.5z"/>
		</g>
		<g>
			<path class="st1" d="M2175.6,1010.8c-8.9,17.6-12.6,38-11.5,57.8c0.3,7,1.7,13.9,3.4,21c-4-6-7.8-12.3-10.7-19.2
				c-9.2-21.4-12.8-45.3-9.9-68.6C2146.9,1001.8,2175.6,1010.8,2175.6,1010.8L2175.6,1010.8z"/>
		</g>
		<g>
			<path class="st1" d="M2245.9,1056c-15.5,15.4-23,40.1-13.3,60.9c3,7.8,8.4,14.4,13.8,20.9c-7.2-4.8-14.6-9.9-20.1-16.9
				c-19.8-22.4-18.4-57.5-4.4-82.9C2221.8,1038,2245.9,1056,2245.9,1056L2245.9,1056z"/>
		</g>
		<g>
			<path class="st1" d="M2199.6,1206.3c-10.2-7.9-17.8-18.3-23.6-29.6c-5.3-10.4-8.2-21.9-8.5-33.3c2.7,4.9,5.5,9.4,9.1,13.4
				c9.5,10.9,22.5,19.7,36.5,22.6C2213,1179.4,2199.6,1206.3,2199.6,1206.3L2199.6,1206.3z"/>
		</g>
		<g>
			<path class="st1" d="M2052.3,1117.8c-7.3,23.7,1.3,49.1,15.6,69.2c11.5,16.8,28.3,30.5,45.1,42.2l18.1,11.2
				c-27-10.1-53.8-22.9-74.6-43.6c-22.6-21.6-38.5-55.2-33.1-87.3C2023.4,1109.6,2052.3,1117.8,2052.3,1117.8L2052.3,1117.8z"/>
		</g>
		<g>
			<path class="st1" d="M2176.9,1978.9c0,28.5-6.7,49.5-18.2,64.6c-19.6,25.8-53.1,34.7-91.1,34.7c-38.1,0-71.6-8.9-91.2-34.7
				c-11.5-15.1-18.2-36.1-18.2-64.6c0-77,49-148.7,109.4-148.7C2127.9,1830.2,2176.9,1901.9,2176.9,1978.9z"/>
		</g>
		<g>
			<path class="st1" d="M2008.4,1297.9c8.1,16,25.5,26,42.3,32.8c13.7,5.7,30.7,8.8,45.7,10.7c0,0,16,1.3,16,1.3l-16,2.5
				c-39.4,4.5-87,0.8-114.1-32.4C1982.3,1312.8,2008.4,1297.9,2008.4,1297.9L2008.4,1297.9z"/>
		</g>
		<g>
			<path class="st7" d="M2158.6,2043.5c-19.6,25.8-53.1,34.7-91.1,34.7c-38.1,0-71.6-8.9-91.2-34.7c9.6-36.4,46.7-63.5,91.2-63.5
				C2111.9,1980.1,2149.1,2007.2,2158.6,2043.5z"/>
		</g>
		<g>
			<path class="st1" d="M2012.8,1503.4c-18.7,28.7-28.1,63.9-27.5,98.2c0,12,1.9,23.9,4.3,35.9c-10.1-22.5-16.1-47.4-16.4-72.2
				c-0.5-26,3.5-52.2,13.3-76.5C1986.5,1488.7,2012.8,1503.4,2012.8,1503.4L2012.8,1503.4z"/>
		</g>
		<g>
			<path class="st1" d="M2067.5,2093.2c-48,0-82.7-13.7-103.1-40.6c-14.1-18.5-21.3-43.3-21.3-73.7c0-88.7,57-163.7,124.4-163.7
				c67.4,0,124.4,75,124.4,163.7c0,30.4-7.2,55.2-21.3,73.7C2150.2,2079.6,2115.5,2093.2,2067.5,2093.2z M2067.5,1845.3
				c-50.3,0-94.4,62.5-94.4,133.6c0,23.6,5.1,42.3,15.2,55.5c14.7,19.3,40.6,28.7,79.2,28.7c38.6,0,64.5-9.4,79.2-28.7
				c10.1-13.2,15.2-31.9,15.2-55.5C2161.8,1907.7,2117.8,1845.3,2067.5,1845.3z"/>
		</g>
		<g class="st3">
			<path class="st1" d="M2296.2,1606.8c-23.2,87.7-87.4,159.2-176.5,191.3c-31.8,5.6-63.4,11.6-93,17.8c-0.1,0-0.3,0.1-0.4,0.1
				c-147.6,31.1-345.3-98.1-143.4-84.8c10.9,0.7,21.4,1.1,31.8,1.1c182.8,0.6,290.6-101.4,307.2-178.1
				c17.5-81-19.2-141.9-73.5-237.1c-54.3-95.2-15-170.3,4.2-179.3c19.2-9,10-42,9.5-70.4c-0.6-28.4,53.9-30.1,58.4,15.7
				c4.5,45.8,51.4-5.7,51.4-5.7c8.2,8.2,15.7,17.3,20.1,26.4c13.8,28.9-5,107.7-85.8,89c0,0-21.3,78.2,20.6,139.6
				S2330.4,1477.8,2296.2,1606.8z"/>
		</g>
		<g>
			<path class="st1" d="M2056.6,2218.9c-32.1,0-64.5-3.1-96.2-9.1c-311.1-59.2-503.3-159.3-587.5-306
				c-107.7-187.6-23.6-425.1,57.7-654.9c4.7-13.2,9.4-26.4,14-39.6c75.1-213.6,237.9-309.9,361.3-353
				c129.2-45.2,240.3-43,250.7-42.7c10.4-0.3,121.5-2.5,250.7,42.7c123.4,43.2,286.2,139.5,361.3,353c4.6,13.2,9.3,26.4,14,39.6
				c81.3,229.7,165.4,467.2,57.7,654.9c-84.2,146.7-276.4,246.7-587.5,306C2121.1,2215.9,2088.8,2218.9,2056.6,2218.9z
				 M2049.6,848.6c-25.4,0-123.7,2.7-233.2,41.2c-168.3,59.2-282.3,170.6-338.7,331.2c-4.7,13.2-9.3,26.5-14,39.7
				c-82.3,232.5-160,452-60.3,625.7c78.8,137.3,263.2,231.8,563.7,289c59,11.2,120.2,11.2,179.2,0c300.5-57.2,484.9-151.7,563.7-289
				c99.7-173.6,22-393.2-60.3-625.7c-4.7-13.2-9.4-26.5-14-39.7c-56.6-160.9-170.9-272.5-339.8-331.6
				c-126.7-44.3-237.4-40.8-238.5-40.8c-0.4,0-0.9,0-1.3,0C2055.9,848.7,2053.6,848.6,2049.6,848.6z"/>
		</g>
		<g>
			<path class="st1" d="M3203.8,1554.3c0,0.8-0.1,4.5-0.9,10.2L3203.8,1554.3z"/>
		</g>
		<g>
			<g>
				<path class="st2" d="M1541.5,2578.6c181.6,0,256.7-140.3,319.3-276.8s1.3-210.4-46.3-246.7c-41.6-31.7-223.5-64.4-275.6,17.1
					l-0.1-0.1c0,0-111.4,20.5-194,296.1C1322.8,2441.8,1359.9,2578.6,1541.5,2578.6z"/>
			</g>
			<g class="st4">
				<path class="st5" d="M1859,2100.9c-8.6-9.1-17.6-16.8-26.1-23.3c-41.6-31.7-223.5-64.4-275.6,17.1l-0.1-0.1
					c0,0-111.4,20.5-194,296.1c-11,36.7-7.3,89.1,21.7,132.4c-45.5-46.3-53-111.6-40-155c82.7-275.5,194-296.1,194-296.1l0,0.1
					c52.1-81.5,234-48.8,275.6-17.1C1829.4,2066.5,1845.6,2081.5,1859,2100.9z"/>
			</g>
			<g class="st3">
				<path class="st1" d="M1860.9,2301.8c-62.6,136.5-137.8,276.8-319.3,276.8c-161.8,0-208.9-108.6-201.6-184.3
					c21.2,52.3,72.4,98.7,169.9,98.7c163.4,0,231-133.8,287.4-264c35.8-82.6,26.6-141.1,4.2-181.7c5.2,2.6,9.6,5.2,13.1,7.8
					C1862.1,2091.4,1923.5,2165.3,1860.9,2301.8z"/>
			</g>
			<g>
				<path class="st1" d="M1541.5,2596.1c-104.1,0-157.8-42.8-184.5-78.7c-39.6-53.2-40.3-116.3-28.9-154.3
					c73.5-244.9,171.8-296.2,200-306.1c18.8-25.5,49.4-42.1,91.1-49.5c74-13.1,171.5,7.3,206,33.6c59,45,115.8,128,51.6,268
					C1810.2,2454.3,1729.4,2596.1,1541.5,2596.1z M1541.6,2089.5c-8.2,2.4-105.4,35.5-179.8,283.7c-9.1,30.2-8.3,80.6,23.4,123.3
					c31.4,42.2,85.5,64.5,156.4,64.5c167.3,0,239-126.1,303.4-266.5c43.8-95.4,30-171.3-41-225.5c-24.5-18.7-112.2-38.6-178.6-26.9
					c-34.7,6.1-58.7,19.4-71.6,39.5C1551,2085.9,1546.6,2088.8,1541.6,2089.5z"/>
			</g>
			<g>
				<path class="st1" d="M1437.6,2330.6c24.6-39.6,42.5-82.5,53.9-127.2c6.8-27.5,11-55,13.6-82.9c0.6-5.8,1.2-13.3,2.4-19
					c3.7-17.8,16.8-58.2,41.5-42.2c7,5.3,8.8,14.8,4.8,22.3c-4,8.4-6.7,17.1-8.1,26.5c-0.7,5.1-1,10.7-1.7,16
					c-2.7,30.7-11.3,60.9-22.9,89.2C1502.2,2258,1474.9,2299.7,1437.6,2330.6L1437.6,2330.6z"/>
			</g>
			<g>
				<path class="st1" d="M1836.6,2195.8c-5.2,0-10.4-0.8-15.1-2.7c-7.5-3-17.2-9.9-21-26.2c-11.7-50.5,37.6-88.9,39.7-90.5
					c5.5-4.2,13.4-3.2,17.6,2.3c4.2,5.5,3.1,13.3-2.3,17.5c-0.5,0.4-38.6,30.3-30.6,64.9c1.6,6.9,4.6,8.1,5.8,8.6
					c10.9,4.3,36.2-7.1,49.8-16.2c5.8-3.8,13.5-2.3,17.4,3.5c3.8,5.8,2.3,13.5-3.5,17.4C1888.3,2178.6,1861,2195.8,1836.6,2195.8z"
					/>
			</g>
			<g>
				<path class="st1" d="M1748.3,2126c-1.4,0-2.8,0-4.2-0.2c-18-1.3-27.4-10.8-32.1-18.5c-19-31.2,4.2-85.8,4.4-86.3
					c2.7-6.4,10.1-9.3,16.5-6.5c6.4,2.7,9.3,10.1,6.5,16.5c-6.4,15-14.8,48.9-6,63.4c1.7,2.8,4.6,6,12.5,6.6
					c33.9,2.5,56.8-50.1,57.1-50.6c2.7-6.4,10-9.4,16.4-6.7c6.4,2.7,9.4,10,6.7,16.4C1824.9,2062.7,1797.9,2126,1748.3,2126z"/>
			</g>
			<g>
				<path class="st1" d="M1626.9,2110.2c-14.1,0-27.2-6-36.9-17.3c-15.7-18.4-19.3-46.3-8.4-66.3c3.3-6.1,10.9-8.4,17-5
					c6.1,3.3,8.3,10.9,5,17c-5.9,10.9-3.5,27.7,5.4,38.1c5,5.8,13.8,11.7,27.8,6.7c33-11.7,40.6-58.8,40.6-59.3
					c1-6.8,7.4-11.5,14.2-10.5c6.8,1,11.5,7.4,10.5,14.2c-0.4,2.5-9.8,62.5-57.1,79.2C1639.1,2109.2,1632.9,2110.2,1626.9,2110.2z"
					/>
			</g>
		</g>
		<g>
			<g>
				<path class="st2" d="M2538.8,2578.6c-95.8,0-162-39-212.2-96c-45.1-50.9-77.5-116.3-107.1-180.8
					c-62.6-136.5-1.3-210.4,46.3-246.7c23-17.5,89-35.4,152.1-34c51,1.1,100.2,14.7,123.4,51.1l0.1-0.1c0,0,111.4,20.5,194,296.1
					C2757.5,2441.8,2720.4,2578.6,2538.8,2578.6z"/>
			</g>
			<g class="st4">
				<path class="st5" d="M2494.2,2575.5c-149.8-21.1-217.6-149-274.8-273.7c-62.6-136.5-1.3-210.4,46.3-246.7
					c31.4-23.9,142.5-48.3,217.6-24c-70.3-8.4-153.1,12.1-179.5,32.2c-40.4,30.8-90.6,88.6-66.8,188.8
					c61.8,27.7,63.1,74.2,52.4,124.3C2335.9,2466,2394.7,2546.8,2494.2,2575.5z"/>
			</g>
			<g>
				<path class="st1" d="M2538.8,2596.1c-187.9,0-268.7-141.8-335.3-287c-64.2-139.9-7.3-222.9,51.6-268
					c34.5-26.3,131.9-46.7,206-33.6c41.7,7.4,72.3,24,91.1,49.5c28.1,9.9,126.5,61.2,200,306.1c11.4,38,10.7,101.1-28.9,154.3
					C2696.6,2553.3,2642.9,2596.1,2538.8,2596.1z M2411.7,2038.6c-56.7,0-115.9,15.6-135.3,30.4c-71,54.2-84.8,130-41,225.5
					c64.4,140.5,136.1,266.5,303.4,266.5c70.9,0,125-22.3,156.4-64.5c31.8-42.7,32.5-93.1,23.4-123.3
					c-75-249.9-173-281.8-180.3-283.8c-4.8-0.8-9.1-3.7-11.8-7.8c-12.8-20.1-36.9-33.4-71.6-39.5
					C2441.2,2039.7,2426.5,2038.6,2411.7,2038.6z"/>
			</g>
			<g>
				<path class="st1" d="M2556.1,2062.7c16.9,21.3,18.7,48.7,20.8,74.6c7.9,68.1,29.2,134.6,65.9,193.4
					c-18.8-15-34.4-33.7-48.4-53.2c-32.1-46.3-53.7-101.2-58.4-157.8c-0.9-13.5-3.6-26.7-9.6-38.6
					C2517.4,2061.9,2543.2,2046.2,2556.1,2062.7L2556.1,2062.7z"/>
			</g>
			<g>
				<path class="st1" d="M2332,2126c-49.5,0-76.6-63.3-77.8-66c-2.7-6.4,0.3-13.7,6.7-16.4c6.4-2.7,13.7,0.3,16.4,6.7
					c0.3,0.7,23.3,52.9,57.1,50.6c7.8-0.6,10.8-3.8,12.5-6.6c8.8-14.5,0.4-48.5-6-63.4c-2.7-6.4,0.2-13.7,6.5-16.5
					c6.3-2.7,13.7,0.2,16.5,6.6c0.2,0.5,23.4,55.2,4.4,86.3c-4.7,7.7-14.1,17.2-32.1,18.5C2334.8,2125.9,2333.4,2126,2332,2126z"/>
			</g>
			<g>
				<path class="st1" d="M2453.4,2110.2c-6,0-12.1-1.1-18.3-3.3c-47.3-16.7-56.7-76.7-57.1-79.2c-1-6.8,3.7-13.2,10.5-14.2
					c6.8-1,13.2,3.7,14.2,10.5c0.1,0.9,7.8,47.7,40.6,59.3c14,5,22.9-0.9,27.8-6.7c8.9-10.5,11.3-27.2,5.4-38.1
					c-3.3-6.1-1-13.7,5-17c6.1-3.3,13.7-1,17,5c10.9,20,7.3,47.9-8.4,66.3C2480.6,2104.3,2467.5,2110.2,2453.4,2110.2z"/>
			</g>
			<g class="st3">
				<path class="st1" d="M2538.8,2578.6c-95.8,0-162-39-212.2-96c2-1.2,3.1-1.7,3.1-1.7s201.7,97.6,306.8-38.8
					c103.9-134.8-53.8-218.1-57.6-220l47.8,88.7c0,0-131.7-71.6-132.5-148c-0.8-76.4-76.3-141.7-76.3-141.7
					c51,1.1,100.2,14.7,123.4,51.1l0.1-0.1c0,0,111.4,20.5,194,296.1C2757.5,2441.8,2720.4,2578.6,2538.8,2578.6z"/>
			</g>
			<g>
				<path class="st1" d="M2243.8,2195.8c-24.4,0-51.7-17.2-57.9-21.3c-5.8-3.8-7.3-11.6-3.5-17.4c3.8-5.8,11.6-7.3,17.4-3.5
					c13.7,9.1,39,20.5,49.8,16.2c1.3-0.5,4.2-1.7,5.8-8.6c8-34.7-30.2-64.6-30.6-64.9c-5.5-4.2-6.5-12.1-2.3-17.5
					c4.2-5.5,12-6.5,17.5-2.3c2.1,1.6,51.4,40,39.7,90.5c-3.8,16.3-13.5,23.2-21,26.2C2254.1,2195,2249,2195.8,2243.8,2195.8z"/>
			</g>
		</g>
		<g>
			<path class="st1" d="M2500,3053.2c-57.1,54.6-126.9,95.4-200.4,124.7c-21.8,8-34.4-23.3-13.1-32.6c37.9-9.3,75.6-20.4,111.8-36
				C2433.8,3094.2,2468,3075.7,2500,3053.2L2500,3053.2z"/>
		</g>
		<g>
			<path class="st1" d="M2681.9,2608.9c-3.9,62.2-13.8,123.7-31.4,182.3c6.1-60.9,4.1-121.7-3.6-181.2
				C2644.8,2584.6,2682.3,2583.3,2681.9,2608.9L2681.9,2608.9z"/>
		</g>
		<g>
			<path class="st1" d="M1627.1,3053.2c30.4,21.2,62,40.2,95.1,55.6c33,15.5,67.3,27.3,102.2,35.7c22.4,6.1,14.5,39-8.3,34.2
				C1745,3150.6,1681.4,3105.9,1627.1,3053.2L1627.1,3053.2z"/>
		</g>
		<g>
			<path class="st1" d="M1466.3,2610.1c-7.7,59.5-9.8,120.3-3.6,181.2c-17.6-58.6-27.6-120.2-31.4-182.4
				c-0.6-9.7,6.8-18.1,16.5-18.7C1458.6,2589.4,1467.8,2599.2,1466.3,2610.1L1466.3,2610.1z"/>
		</g>
		<g class="st3">
			<path class="st1" d="M1801.2,3155.9c0,0-0.7,2.2-2,6c-71.1,2.5-191.4,6.1-274,5.3c-124-1.3-175.3,27.6-253,50.1
				s-180-31.7-220.1-135.3c-3-7.8-5.8-15.7-8.4-23.8c2.1-3.2,3.3-5,3.3-5c143.4,143.6,211.9,77.1,226.2-141.5l31.1,126
				c170.6-76.7,271.4-48.4,271.4-48.4c38.8,78.9,181.7,147.5,181.7,147.5L1801.2,3155.9z"/>
		</g>
		<g>
			<g>
				<g>
					<ellipse class="st1" cx="1750.7" cy="1425.6" rx="103.2" ry="119.1"/>
				</g>
			</g>
			<g>
				<g>
					<ellipse class="st5" cx="1778.7" cy="1391.2" rx="33.6" ry="42.6"/>
				</g>
			</g>
			<g class="st0">
				<g>
					<ellipse class="st5" cx="1712.2" cy="1465.8" rx="18.6" ry="28.8"/>
				</g>
			</g>
		</g>
		<g>
			<g>
				<g>
					<ellipse class="st1" cx="2390.4" cy="1434" rx="101.6" ry="117.4"/>
				</g>
			</g>
			<g>
				<g>
					<ellipse class="st5" cx="2362.8" cy="1400.1" rx="33.1" ry="41.9"/>
				</g>
			</g>
			<g class="st0">
				<g>
					<ellipse class="st5" cx="2428.3" cy="1473.6" rx="18.4" ry="28.4"/>
				</g>
			</g>
		</g>
	</g>
</g>
</svg>
