<?xml version="1.0" encoding="utf-8"?>
<!-- Generator: Adobe Illustrator 27.5.0, SVG Export Plug-In . SVG Version: 6.00 Build 0)  -->
<svg version="1.1" xmlns="http://www.w3.org/2000/svg" xmlns:xlink="http://www.w3.org/1999/xlink" x="0px" y="0px"
	 viewBox="0 0 500 500" style="enable-background:new 0 0 500 500;" xml:space="preserve">
<style type="text/css">
	.st0{fill:#FFFFFF;}
	.st1{fill:#E6710B;}
	.st2{fill:#CF560A;}
	.st3{fill:#803F21;}
	.st4{fill:#E6D3A3;}
	.st5{fill:#CCBB91;}
	.st6{fill:#F18628;}
	.st7{fill:#982626;}
	.st8{fill:#AB2B2B;}
	.st9{fill:#F1B480;}
</style>
<g id="OBJECTS">
	<g>
		<path class="st1" d="M284.2,353.5c8.8-10.5,8.4-27.1,5.5-41.2c-2.9-13.9-7-28-13.3-40.4c-6.2-12-13.2-19.3-25.4-21.7
			c-15.2-3-23.9,8.3-30.3,23.4c-6.3,14.7-8.6,29.9-12.9,45.1c-3.6,12.9-1.7,25.2,8.2,35.5C231.4,370.2,269.4,371.2,284.2,353.5z"/>
		<path class="st2" d="M288.5,307c0.4,1.8,0.8,3.6,1.2,5.3c2.9,14.1,3.3,30.7-5.5,41.2c-14.8,17.7-52.8,16.7-68.3,0.6
			c-9.9-10.3-11.8-22.5-8.2-35.5c0.8-2.7,1.5-5.5,2.2-8.2c10.4,5,21.8,8.5,33.6,10.2C259.9,323.2,276.8,317.9,288.5,307z"/>
		<g>
			<path class="st1" d="M220.4,318.7c0.7,5,0,11.5-5.3,11.3c-0.2,0-0.3,0-0.5,0c-2.2-9.6-5.7-28.2,6-26.1c5.5,1,6.1,9.4,7.1,13.9
				c0.3,1.5,0.7,3,1,4.5C225.5,326.9,223.2,320.7,220.4,318.7z"/>
			<path class="st3" d="M222.3,358.6c-2.7-8-4.8-16.2-6.7-24.5c-0.2-1-0.6-2.4-1-4.2c0.1,0,0.3,0,0.5,0c5.3,0.2,6.1-6.4,5.3-11.3
				c2.8,2.1,5.1,8.3,8.2,3.6c1.1,4.8,2.1,9.6,3.1,14.3c2,9,3.9,18.1,5.9,27.2c0,0,1.4,17.6-7.2,11C226,371.3,224,363.7,222.3,358.6z
				"/>
		</g>
		<g>
			<path class="st1" d="M271.6,317.1c-2.1,4.5-6.4,9.6-10.7,6.5c-0.1-0.1-0.2-0.2-0.4-0.3c3.5-9.2,10.9-26.6,19.5-18.4
				c4,3.9-0.2,11.2-1.8,15.5c-0.6,1.4-1.1,2.9-1.7,4.3C271.2,326.8,272.8,320.4,271.6,317.1z"/>
			<path class="st3" d="M251,351.4c2.2-8.2,5-16.2,8-24.1c0.4-0.9,0.9-2.4,1.5-4.1c0.1,0.1,0.2,0.2,0.4,0.3
				c4.3,3.1,8.6-1.9,10.7-6.5c1.2,3.3-0.4,9.7,4.8,7.6c-1.8,4.6-3.6,9.1-5.4,13.7c-3.4,8.6-6.8,17.2-10.2,25.8
				c0,0-8.6,15.5-12.1,5.1C247,364,249.6,356.6,251,351.4z"/>
		</g>
		<path class="st1" d="M251,250.2c12.1,2.4,19.2,9.7,25.4,21.7c5.5,10.8,9.4,22.9,12.2,35.1c-11.7,11-28.6,16.3-44.9,13.7
			c-11.9-1.7-23.2-5.1-33.6-10.2c3.1-12.5,5.6-24.9,10.7-36.9C227.1,258.5,235.8,247.2,251,250.2z"/>
		<path class="st4" d="M226.2,289.3c0.5,5.6,1.4,12.8,1.3,12.9c2.6-2.5,5.2-5,7.8-7.4c2.5,10,5,20.1,7.5,30.1
			c10.6-8,18-20.1,20.5-33.2c2.1,3.5,4.2,7,6.3,10.6c5.4-14.3,6.7-28.4-6.1-38.3c-12.5-9.7-22.2-4.6-30.9,6.5
			c-3.4,4.4-5.6,6.9-6.7,12.7C225.8,284.1,226,286.5,226.2,289.3z"/>
		<path class="st4" d="M229.2,275.3c14.2,3,28.6,2.9,41.8-2.8c4.5,8.7,2.7,19.2-1.2,29.7c-2.1-3.5-4.2-7-6.3-10.6
			c-2.5,13.1-9.9,25.1-20.5,33.2c-2.5-10-5-20.1-7.5-30.1c-2.6,2.5-5.2,5-7.8,7.4c0.1-0.1-0.8-7.3-1.3-12.9
			c-0.2-2.9-0.4-5.3-0.2-6.1C226.7,279.8,227.7,277.6,229.2,275.3z"/>
		<path class="st5" d="M229.2,275.3c1-1.5,2.2-3,3.6-4.8c8.6-11.1,18.4-16.2,30.9-6.5c3.3,2.6,5.7,5.5,7.3,8.6
			C257.7,278.3,243.4,278.3,229.2,275.3z"/>
		<path class="st1" d="M271,213.6c1,0.9,2,1.8,3.1,2.6c3.5,2.6,7.4,4.6,11.5,5.9c1.6,0.5,3.3,0.9,5,1.1c10-10,13-26.3,7.1-39.1
			C283.3,187.1,272.2,199,271,213.6z"/>
		<path class="st3" d="M274,216.2c3.5,2.6,7.4,4.6,11.5,5.9c0.3-0.2,0.5-0.4,0.7-0.7c5.6-6.4,7.8-16.1,5.4-24.5
			C283.3,200.1,276.9,207.3,274,216.2z"/>
		<path class="st1" d="M227.4,213.6c-1,0.9-2,1.8-3.1,2.6c-3.5,2.6-7.4,4.6-11.5,5.9c-1.6,0.5-3.3,0.9-5,1.1
			c-10-10-13-26.3-7.1-39.1C215.1,187.1,226.1,199,227.4,213.6z"/>
		<path class="st3" d="M224.4,216.2c-3.5,2.6-7.4,4.6-11.5,5.9c-0.3-0.2-0.5-0.4-0.7-0.7c-5.6-6.4-7.8-16.1-5.4-24.5
			C215.1,200.1,221.5,207.3,224.4,216.2z"/>
		<path class="st6" d="M188.7,252c37.7,19.3,84.6,19.7,122.6,1c-7.8-27.2-32-52.3-60.3-52.2C222.7,200.9,196.3,224.8,188.7,252z"/>
		<path class="st4" d="M188.7,252c37.7,19.3,84.6,19.7,122.6,1c0,0-42.4-54-58.7,8.5l-6.4-0.9C246.2,260.5,237.8,192,188.7,252z"/>
		<path class="st7" d="M240.9,261.2c1.4-2.1,7.2-1.7,9.1-1.6c1.7,0.1,6.6,0.3,7.7,1.8c2.7,3.7-5,7.8-7.7,7.8c-2.1,0-4.1-1-5.7-2.3
			c-1.1-0.9-3.8-3.5-3.5-5.1C240.7,261.6,240.8,261.4,240.9,261.2z"/>
		<path class="st8" d="M245.7,262.1c0.7-1,1.8-1,2.9-1.1c1.2-0.1,2.8-0.2,3.8,0.6c0.5,0.4,0.7,1.3,0,1.6c-1,0.4-1.9,0.3-3,0.3
			c-1.1,0-2.4,0.6-3.4-0.1C245.6,263.2,245.3,262.6,245.7,262.1z"/>
		<path class="st3" d="M270.9,242.3c1.1-1.5,2.9-1.5,4,0c0.8,1,0.6,3,0.6,4.3c0,0.9-0.5,1.9-1.3,2.3c-1,0.5-1.7,0.5-2.6,0
			c-0.8-0.4-1.3-1.4-1.3-2.3C270.2,245.3,270.1,243.3,270.9,242.3z"/>
		<path class="st3" d="M225.4,242.3c1.1-1.5,2.9-1.5,4,0c0.8,1,0.6,3,0.6,4.3c0,0.9-0.5,1.9-1.3,2.3c-1,0.5-1.7,0.5-2.6,0
			c-0.8-0.4-1.3-1.4-1.3-2.3C224.8,245.3,224.6,243.3,225.4,242.3z"/>
		<path class="st9" d="M253,230.6c0.1-0.7,0.2-1.4,0.3-2.1c0.1-0.6,1-0.4,1,0.1c0,0.8-0.1,1.5-0.2,2.3c-0.1,0.6,0,1.2-0.5,1.7
			c-0.2,0.1-0.4,0.1-0.5-0.1C252.7,231.9,253,231.2,253,230.6z"/>
		<path class="st9" d="M244.7,230.7c0-0.8,0-1.7,0.1-2.5c0.1-0.5,0.8-0.5,0.8,0c0.1,0.7,0.1,1.5,0.1,2.2c0,0.7,0.1,1.5-0.2,2.1
			c-0.1,0.2-0.5,0.2-0.6,0C244.6,231.9,244.7,231.3,244.7,230.7z"/>
		<path class="st9" d="M250.3,239.6c0-0.7,0-1.4,0.1-2.1c0.1-0.6,0.8-0.6,0.9,0c0.1,0.7,0.1,1.4,0.1,2.1c0,0.5,0.2,1.2-0.3,1.5
			c-0.1,0.1-0.3,0.1-0.5,0C250.1,240.8,250.3,240.1,250.3,239.6z"/>
		<path class="st9" d="M261.5,228.3c0.1-0.7,0.3-1.4,0.5-2.1c0.1-0.5,1-0.4,0.9,0.1c-0.1,0.7-0.2,1.3-0.3,2
			c-0.1,0.6-0.1,1.2-0.5,1.7c-0.2,0.3-0.6,0.1-0.7-0.2C261.2,229.3,261.4,228.8,261.5,228.3z"/>
		<path class="st9" d="M257.5,222c0.1-0.8,0.3-1.5,0.7-2.2c0.2-0.4,0.8-0.1,0.7,0.3c-0.1,0.7-0.3,1.3-0.4,2c-0.1,0.5,0,1.2-0.4,1.6
			c-0.1,0.1-0.3,0.1-0.4,0C257.3,223.1,257.4,222.5,257.5,222z"/>
		<path class="st9" d="M256.4,239.6c0.2-0.5,0.5-1,0.9-1.5c0.3-0.4,1-0.2,0.8,0.4c-0.2,0.5-0.4,1-0.6,1.4c-0.2,0.3-0.4,0.9-0.9,0.7
			C256.1,240.4,256.3,239.9,256.4,239.6z"/>
		<path class="st9" d="M242.7,237.6c0.4,0.7,0.7,1.6,0.8,2.3c0,0.5-0.6,0.6-0.9,0.2c-0.4-0.6-0.6-1.6-0.7-2.3
			C241.9,237.4,242.5,237.3,242.7,237.6z"/>
		<path class="st9" d="M249.3,219.4c0.2-0.2,0.6-0.2,0.6,0.1c0.1,0.4,0.1,0.8,0.1,1.1c0,0.5,0,1,0,1.5c0,0.7-1,0.7-1.1,0
			C248.8,221.3,248.8,220.1,249.3,219.4z"/>
		<path class="st9" d="M239.6,220c0.1-0.4,0.7-0.4,0.8,0c0.1,0.6,0.2,1.3,0.3,1.9c0.1,0.5,0.4,1,0.2,1.6c0,0.1-0.2,0.2-0.3,0.1
			C239.5,223.1,239.4,221,239.6,220z"/>
		<path class="st9" d="M255.9,215.6c0.1-0.5,0.2-1.1,0.3-1.6c0.2-0.5,0.9-0.4,0.9,0.1c0,0.6-0.1,1.2-0.2,1.7c0,0.3-0.4,0.4-0.7,0.4
			C255.9,216.2,255.8,215.9,255.9,215.6z"/>
		<path class="st9" d="M264.6,217.1c0.4-0.4,0.9,0.1,0.7,0.5c-0.4,0.7-0.7,1.4-0.8,2.2c-0.1,0.7-1.1,0.4-1-0.3
			C263.6,218.6,264,217.8,264.6,217.1z"/>
		<path class="st9" d="M242.5,216.7c0.1-0.7,0.3-1.3,0.5-2c0.1-0.5,1-0.4,0.9,0.1c-0.1,0.6-0.1,1.2-0.2,1.8c-0.1,0.6,0,1.2-0.6,1.6
			c-0.1,0.1-0.4,0.1-0.5-0.1C242.3,217.6,242.4,217.2,242.5,216.7z"/>
		<g>
			<path class="st6" d="M239.2,331.8c9.5-4.6,21.8-2.6,32-4.9c4.7-1.1,10.6-2.4,13.7-6.6c1.6-2.2,5.1-15,3.3-15.7
				c11,4.2,19.4,20.1,20.4,31.1c2,23.3-14.9,34.9-35.5,37.9c-12.3,1.8-31.8,0.8-41.6,9.6c-8.4,7.6-14.7,23.3-17.7,33.9
				c-11.8-4.2-18.4-17.8-18.9-30.2c-0.4-10.9,3.9-21.6,10.7-30.2c1-1.2,2-2.4,3-3.6C217,343.8,227.9,337.3,239.2,331.8z"/>
			<path class="st1" d="M263.5,362.1c17.3-5.3,35.2-15.1,44.2-31.2c0.4,1.7,0.7,3.3,0.8,4.9c2,23.3-14.9,34.9-35.5,37.9
				c-12.3,1.8-31.8,0.8-41.6,9.6c-8.4,7.6-14.7,23.3-17.7,33.9c-11.8-4.2-18.4-17.8-18.9-30.2c-0.3-8.2,2-16.2,6.1-23.4
				C221,369.1,243.1,368.3,263.5,362.1z"/>
			<path class="st6" d="M208.6,353c8.4-9.2,19.4-15.8,30.6-21.2c9.5-4.6,21.8-2.6,32-4.9c4.7-1.1,10.6-2.4,13.7-6.6
				c1.6-2.2,5.1-15,3.3-15.7c9.4,3.6,17,15.9,19.5,26.3c-8.9,16.1-26.9,26-44.2,31.2c-20.3,6.2-42.5,6.9-62.5,1.3
				c1.4-2.4,2.9-4.7,4.6-6.9C206.5,355.4,207.5,354.2,208.6,353z"/>
			<path class="st4" d="M194.8,386.8c-0.4-10.9,3.9-21.6,10.7-30.2c1.8-0.7,3.6-1.3,5.5-1.8c-4.5,6.7-5.7,15.6-3.2,23.3
				c3.7-4.4,8.8-7.5,14.4-8.7c-4,4.5-5.4,11.4-3.3,17.1c4.7-4.6,11.4-7.1,17.9-6.9c-10.9,10.1-19,23.1-23.1,37.4
				C202,412.9,195.3,399.3,194.8,386.8z"/>
			<path class="st9" d="M256.8,333.1c0.5,0.4,1.2,0.3,1.9,0.4c0.7,0,1.4,0,2.1,0c0.4,0,0.3-0.6,0-0.7c-0.7-0.2-1.5-0.2-2.2-0.3
				c-0.6,0-1.2-0.2-1.7,0.2C256.7,332.7,256.7,333,256.8,333.1z"/>
			<path class="st9" d="M246.2,335.5c0.6,0.1,1.1-0.1,1.6-0.3c0.7-0.2,1.4-0.3,2.1-0.4c0.5-0.1,0.5-0.9,0-0.9
				c-0.8,0-1.5,0.1-2.3,0.2c-0.7,0.1-1.3,0.3-1.7,0.9C245.8,335.3,245.9,335.5,246.2,335.5z"/>
			<path class="st9" d="M236.1,339.4c0.9-0.1,1.8-0.6,2.6-0.9c1-0.4,1.9-0.8,2.8-1.2c0.5-0.2,0.1-0.9-0.3-0.7c-1,0.3-2,0.7-2.9,1.1
				c-0.8,0.3-1.8,0.6-2.5,1.1C235.5,339,235.8,339.4,236.1,339.4z"/>
			<path class="st9" d="M228,343c0.4,0.2,0.8-0.1,1.1-0.4c0.5-0.3,1-0.7,1.5-1.1c0.4-0.3,0-1-0.5-0.7c-0.4,0.3-0.9,0.6-1.3,0.8
				c-0.4,0.3-1,0.5-1,1C227.8,342.8,227.9,342.9,228,343z"/>
			<path class="st9" d="M252.2,336.9c0.4,0.4,1.1,0.1,1.7,0c0.7-0.1,1.4-0.1,2.1-0.2c0.3,0,0.4-0.5,0.1-0.6
				c-0.7-0.2-1.4-0.2-2.1-0.2c-0.6,0-1.6,0-1.8,0.7C252.1,336.7,252.1,336.8,252.2,336.9z"/>
			<path class="st9" d="M243.7,340.1c0.4,0.1,0.8-0.1,1.2-0.2c0.4-0.1,0.9-0.1,1.3-0.1c0.5,0,0.4-0.7,0-0.8c-0.5-0.1-1-0.1-1.4,0
				c-0.4,0-1,0.1-1.3,0.4C243.2,339.6,243.3,340,243.7,340.1z"/>
			<path class="st9" d="M232.5,344c0.5,0,0.8-0.2,1.2-0.4c0.6-0.3,1.2-0.5,1.8-0.6c0.5-0.1,0.4-0.8-0.1-0.8
				c-0.6,0.1-1.2,0.3-1.8,0.5c-0.5,0.2-1.1,0.4-1.3,0.9C232.2,343.7,232.3,344,232.5,344z"/>
			<path class="st9" d="M250.3,339.9c0.2-0.1,0.4-0.2,0.7-0.3c0.3-0.1,0.5,0,0.8-0.1c0.2-0.1,0.3-0.3,0.2-0.5
				c-0.2-0.5-0.7-0.5-1.2-0.5c-0.4,0-0.9,0.2-1.1,0.6C249.3,339.6,249.8,340.1,250.3,339.9z"/>
			<path class="st9" d="M239.4,343.7c0.3,0,0.7-0.2,1-0.4c0.3-0.2,0.7-0.3,1-0.5c0.5-0.3,0.2-1-0.4-0.8c-0.3,0.1-0.7,0.3-1,0.4
				c-0.3,0.1-0.7,0.2-0.9,0.5C238.7,343.3,239,343.8,239.4,343.7z"/>
		</g>
	</g>
</g>
</svg>
