<?xml version="1.0" encoding="utf-8"?>
<!-- Generator: Adobe Illustrator 27.4.1, SVG Export Plug-In . SVG Version: 6.00 Build 0)  -->
<svg version="1.1"
	 id="svg2" xmlns:svg="http://www.w3.org/2000/svg" xmlns:sodipodi="http://sodipodi.sourceforge.net/DTD/sodipodi-0.dtd" xmlns:inkscape="http://www.inkscape.org/namespaces/inkscape"
	 xmlns="http://www.w3.org/2000/svg" xmlns:xlink="http://www.w3.org/1999/xlink" x="0px" y="0px" viewBox="0 0 4533.3 2666.7"
	 style="enable-background:new 0 0 4533.3 2666.7;" xml:space="preserve">
<style type="text/css">
	.st0{fill:#CEC6BA;}
	.st1{fill:#E0D7C8;}
	.st2{fill:#EFE1CA;}
	.st3{fill:#DDB1AB;}
	.st4{fill:#C4BCB1;}
	.st5{fill:#3F3D3A;}
	.st6{fill:#FFFFFF;}
	.st7{fill:#FFF0D9;}
</style>
<sodipodi:namedview  bordercolor="#000000" borderopacity="0.25" id="namedview4" inkscape:deskcolor="#d1d1d1" inkscape:pagecheckerboard="0" inkscape:pageopacity="0.0" inkscape:showpageshadow="2" pagecolor="#ffffff">
	</sodipodi:namedview>
<g id="g8" transform="matrix(1.3333333,0,0,-1.3333333,0,2666.6667)" inkscape:groupmode="layer" inkscape:label="ink_ext_XXXXXX">
	<g id="g10" transform="scale(0.1)">
		<path id="path98" class="st0" d="M15574.6,8499.9c-88.6,108.6-431.4,136.7-543,52c-111.7-84.7-161.3-232-161.2-372.2
			c0-140.1,69-457.7,111.4-591.2c114.7-361.6,655.7-1063.8,600.2-1156c-37.8-62.9-381.2-157.8-444.8-194.4
			c-63.7-36.6-129.3-84.1-147.8-155.1c-18.4-71,43.1-161.5,113.8-141.8c41.8-110.7,210.3-144.5,291.5-58.4
			c1.4-49.9,55.5-85,105.4-84.2c49.9,0.9,95.3,27.5,137.6,53.9c190.6,119.1,402.2,205.5,574.1,350.3
			c130,109.3,230,280.1,277.4,443.2c65.6,225.5-40.5,461.4-144,672.2L15574.6,8499.9"/>
		<path id="path100" class="st0" d="M18397.8,8499.9c82.4,113.4,463.2,78.3,579.4-0.2c116.1-78.4,173.8-222.7,181.5-362.7
			c7.7-139.9-27.5-278.2-62.5-413.9c-94.6-367.4-640.3-1253.5-579.8-1342.5c41.2-60.7,417.6-164,483.1-197
			c65.6-33,133.7-76.8,156.1-146.7s-34.1-163.5-105.8-147.9c-35.5-112.8-202-155.8-287.8-74.4c1.3-49.9-50.8-87.9-100.6-89.8
			c-49.9-1.9-96.7,22.2-140.4,46.2c-196.9,108.4-386.1,230.7-565.7,365.7c-135.8,102-271.9,219.3-328.3,379.5
			c-77.9,221.5,15,463,106.6,679.2L18397.8,8499.9"/>
		<path id="path102" class="st1" d="M16132.8,10460.8l21.2,9.5C16155.2,10486,16132.7,10473,16132.8,10460.8"/>
		<path id="path104" class="st1" d="M18613,9076.3c-76.8,530.3-405.5,1172.3-863.6,1392c-178.3,85.5-374.4,120.8-569.4,142.9
			c-338.3,38.3-700.2,33.8-996.3-151.2c-15.1-9.4-35.8-18.8-48.1-5.8c-2,2-2.7,4.3-2.8,6.6l-154-69.4
			c-301.3-517.1-395.7-1092-485.7-1691.4c-90.1-599.5,463.3-1881.3,747.5-2400.8c113-206.5,1261.2-230.7,1592.7-64.2
			C18139.3,6388.7,18694.5,8513.2,18613,9076.3"/>
		<path id="path106" class="st1" d="M15829.2,11749.7c3.2,305.8-55.5,620.9-251.9,882c-204.2,271.5-536.1,459.8-820.3,679
			c-284.1,219.3-538.7,508.1-507.5,824.9c2.9,29.1,8.9,59.5,30.9,82.7c61.2,64.4,187,30.5,274.9-8.8
			c457.3-204.2,941.4-430.4,1173.5-809.4c134.1-219.1,169.2-467.7,212.6-709.8c49.5-276.3,112.6-551,188.9-823.2L15829.2,11749.7"/>
		<path id="path108" class="st1" d="M17248,12368.2c18.9,442.7,4.4,886.7-43.2,1327.1c-14.3,132.1-22.4,288.5,80.3,372.9
			c61.7,50.7,147,59.1,226.7,64.1c123.1,7.6,248.9,11.9,367.3-22.6c118.4-34.6,229.8-114.4,272.3-230.2
			c59.3-161.8-27.2-337.3-111.7-487.5c-259.6-461.6-532.4-949.4-524.3-1478.9L17248,12368.2"/>
		<path id="path110" class="st0" d="M15255.4,9085.4c-3.7-220.9,74.4-446.6,231.4-602.1c110.7-109.7,253.4-180.1,381.2-269.4
			c127.8-89.2,247.9-209.6,274.5-363.2c12.2-70.2,4.8-146.2,39.5-208.3c34.6-62.1,140.2-88.3,171.8-24.6
			c9.2-45.8,54.1-81.8,100.8-80.7c46.8,1,90.1,38.9,97.2,85.2c22.1-15.1,34.1-47.7,66.4-45.2c175.5-8.2,135.3,481.3-55.6,648
			c-73.4,64-276.4,297.5-360,347.2c-184.7,109.7-324.1,287.9-356.8,385.7c-34.1,101.9-46,208.3-37.4,315.5
			c12.4,155.5-49.7,573.4-304.5,445.4C15321.8,9627.3,15258.5,9263.2,15255.4,9085.4"/>
		<path id="path112" class="st2" d="M15738.4,9078.4c18.5,21.8,36.9,43.6,55.3,65.4c168.5-300.2,414.3-559.9,709.1-749.5
			c21.9,32.3,43.9,64.6,65.8,96.9c110.5-200.4,191.3-416,239-638.2c164.5,164.5,309.2,347.2,430.6,543.3
			c24.2-44.4,36.3-94.8,34.7-144.8c362.4,270.3,614.7,673.9,693,1108.6c56.6-117.5,81.4-249,71.3-378.2
			c141.3,134.7,230,319.2,245.2,510c25.4-24.6,50.9-49.2,76.3-73.9c-11.6,249.9-33.9,502.2-116.2,739.4
			c-82.3,237.3-230.3,460.6-448.8,596.1c-182.7,113.1-403.3,158.4-620.4,165.9c-483.5,16.8-1097.9-163.3-1424-529.6
			C15446.1,10049,15492,9429.9,15738.4,9078.4"/>
		<path id="path114" class="st1" d="M16719.2,12587.4c-770.9-102.9-1362.2-946.2-1267.2-1612.2c95.1-666,898.2-881.3,1479-880.4
			c580.8,0.9,1488.6,570.5,1489.1,1067.8C18421,11895.4,17475.1,12688.4,16719.2,12587.4"/>
		<path id="path116" class="st0" d="M17880.2,8972.5c-150.5-137-334.9-232.2-488-366.5c-153-134.3-277.8-329.2-246.9-530.4
			c6.6-42.6,21.4-86.2,53.9-114.4s86.2-34.9,117.6-5.4c6.1-51.7,50.7-96.2,102.3-102.1c51.7-6,105.3,27.2,122.9,76.1
			c27.9-52.6,108.8-56,155.2-18.6c46.4,37.3,63.8,100.1,68.2,159.5c4.5,59.3-1.3,119.7,10.5,178c131.5,93.2,260.6,189.8,387.2,289.5
			c186.5,146.8,375.9,312.6,449.9,538.1c43.7,133.2,43.1,277.4,22.2,416c-16,106.4-44.7,213.6-106.3,301.9
			c-48.7,69.8-157.1,183-239.1,108.5c-63.6-57.7-43.7-250.6-62-330.2C18175.1,9344,18054,9130.6,17880.2,8972.5"/>
		<path id="path118" class="st3" d="M14810.3,13493.3c196.5-147.5,414.3-266.2,602.8-423.8c188.5-157.7,350.8-366.3,383-609.9
			c45.4,338.4-98.5,682-321.8,940.3s-519.3,442.5-821.1,602.3c-179.9,95.3-326,59.6-191.4-151.6
			C14551.7,13709.5,14677.3,13593.2,14810.3,13493.3"/>
		<path id="path120" class="st3" d="M17321.6,13445.4c19.2-151.5,59.7-300.2,69.5-452.7c8-125.2-4.8-251.7,12.4-376
			c111.7,338.9,394.4,616.9,434.6,971.5c7.2,63.6,5.6,130.5-22,188.2c-34.7,72.7-108.1,122.2-186.4,141
			C17308.8,13994.5,17290.9,13688.1,17321.6,13445.4"/>
		<path id="path122" class="st0" d="M17240.9,13919.7c28.6-63.6,85.6-109,130.3-162.5c110-131.3,143.6-307.9,202.2-468.9
			c58.5-161,165.9-327.5,334.3-358.9c23.7-4.4,48.8-5.7,71.2,2.9c40.2,15.6,61.7,58.4,78.6,98c72.4,170.5,125.1,349.4,156.6,531.9
			c18,104,28.8,212.9-3.3,313.5c-55,172.8-230.5,286.8-409.8,314C17655.9,14211.6,17116.8,14195.1,17240.9,13919.7"/>
		<path id="path124" class="st2" d="M16879.3,11155.7c-138-3.2-274.5-17.8-405.5-61.2c-90.5-30.1-190.7-73.2-222.1-163.2
			c-26.4-75.6,7.7-161.8,64-218.7c76.5-77.4,194.1-111.7,300.3-87.6c114.7,26.1,206.3,112.7,277.2,206.6
			c33.4,44.2,64.2,91.9,77.4,145.7C16983.8,11031.1,16945.5,11157.3,16879.3,11155.7"/>
		<path id="path126" class="st2" d="M16955.6,11165.9c133.2,36.3,268.2,61.4,406.1,57.2c95.3-2.9,203.7-15.5,259.6-92.8
			c46.9-64.9,38.8-157.2,1.2-227.8c-51.2-96.1-154.1-162.6-262.7-169.9c-117.4-7.8-229.9,49-324.8,118.7
			c-44.6,32.7-87.8,69.7-115.8,117.5C16891.2,11016.5,16891.8,11148.4,16955.6,11165.9"/>
		<path id="path128" class="st4" d="M17399.9,11886.5c52.9,68.3,137.5,111,223.9,113c44.4,1,121.8,1.7,170.4-54.8
			c29-33.6,26.5-110-14.1-128c-4.5,4.8-145.6-57.2-145.6-57.2c-61.2-64.3-131.9-119.5-209.2-163.1c-9.3-5.2,1.4-5.1-9.3-5.2
			c-26.7-0.3-63.3,24.2-69.4,50.2C17326.9,11725.5,17347,11818.1,17399.9,11886.5"/>
		<path id="path130" class="st5" d="M17811.6,11851.2c0,0-255.5,59.4-353.3-13.4c-119.7-89.1-75.7-231.2-75.7-231.2
			s73.9-109.3,247.8-53.1C17748.8,11591.8,17811.6,11851.2,17811.6,11851.2"/>
		<path id="path132" class="st6" d="M17527.1,11733.2c-6-13.9-14.7-26.6-20.2-40.7c-8.2-20.6-12.9-47.3-34-54
			c-13-4-27.6,2.5-36,13.2c-8.4,10.6-11.4,24.7-11.9,38.3c-1,35.2,18,82.3,50.3,100.5
			C17517,11814.2,17544.3,11773.2,17527.1,11733.2"/>
		<path id="path134" class="st4" d="M16305.5,11757.9c-53.9,67.6-139.1,109.1-225.5,109.9c-44.4,0.4-121.7,0-169.6-57.2
			c-28.4-34-24.9-110.4,15.9-127.8c4.4,4.9,146.4-55.2,146.4-55.2c62.1-63.4,133.6-117.5,211.5-160.1c9.4-5.1-1.3-5.1,9.4-5.1
			c26.7,0.1,62.9,25.1,68.6,51.2C16380.8,11598,16359.4,11690.3,16305.5,11757.9"/>
		<path id="path136" class="st5" d="M15894.4,11716.9c0,0,254.6,62.9,353.4-8.5c121-87.4,79-230.1,79-230.1s-72.4-110.3-247.1-56.5
			C15960.8,11458.4,15894.4,11716.9,15894.4,11716.9"/>
		<path id="path138" class="st6" d="M16044.4,11695.1c-24.3-14.3-45.4-36-52.9-63.1c-7.6-27.2,1.1-59.7,24.7-75
			c4.7-3,10.1-5.4,15.6-5.4c9.9,0.1,18.2,7.8,23.1,16.3c4.9,8.6,7.4,18.3,11.9,27c13.4,26,42.5,40.3,58.3,64.8
			c3.1,4.8,5.7,10.1,5.7,15.8c0,11-9.7,19.5-19.8,24c-16.3,7.2-35.6,7.5-52.1,0.8L16044.4,11695.1"/>
		<path id="path140" class="st5" d="M16918.3,11058.7c20.6-127.3,51.1-252.7,71.8-380c1.5-9.5,13.1-14.5,21.6-12.3
			c10,2.6,13.9,12.3,12.3,21.7c-20.6,127.2-51.1,252.7-71.7,379.9c-1.6,9.5-13.2,14.6-21.7,12.4
			C16920.6,11077.7,16916.8,11068,16918.3,11058.7L16918.3,11058.7"/>
		<path id="path142" class="st5" d="M16809.9,10648.6c63-10.4,127.6-8.2,190.3,3.9c61.8,11.9,122.3,34.4,172.3,73.2
			c7.6,5.8,6.1,18.7,0,24.9c-7.3,7.5-17.4,5.8-24.9,0c-44.9-34.8-101.6-53.5-156.8-64.1c-56-10.8-115.2-13.2-171.6-3.9
			C16797,10686.3,16787.5,10652.4,16809.9,10648.6L16809.9,10648.6"/>
		<path id="path144" class="st2" d="M17060.6,11212.4c10.7,21.3,9.8,46.2,8.5,69.9c-21.7,379.2-103.8,780.3,57.6,1124.1
			c21.9,46.8,48.6,95.1,57,144.8c-154.8,42-310.8,56.9-459.5,37c-210.6-28.1-407.7-111.6-581.1-231.5c11.7-45.9,63.7-83,131.4-135.4
			c114.4-88.5,202.4-209.5,267.4-337.7c104-205.4,157.5-432.1,238.4-647.7c8.2-21.7,17.2-44.2,34.2-59.9
			c33.2-30.8,84.7-26.7,129.6-20.6C16988.8,11161.4,17040.4,11172.1,17060.6,11212.4"/>
		<path id="path146" class="st5" d="M16933,11220c-140.3-18-230.7-29.8-225-91.1c3.5-38.2,181.7-122.2,248.6-113.3
			s206.9,122.2,197.3,186C17147.9,11241.7,17051.6,11235.2,16933,11220"/>
		<path id="path148" class="st4" d="M16361.7,10966c-140.5-42-270.1-115.8-378.1-214.8c-16.7-15.4,8.2-40.3,24.9-24.9
			c103.5,94.9,228,165.4,362.5,205.7C16392.7,10938.5,16383.5,10972.5,16361.7,10966L16361.7,10966"/>
		<path id="path150" class="st4" d="M16388.4,10871.2c-111.9-53.6-212.4-130.2-293.6-224c-14.8-17.1,10.1-42.1,24.9-24.9
			c79.5,91.7,176.9,166,286.5,218.5C16426.6,10850.6,16408.7,10881,16388.4,10871.2L16388.4,10871.2"/>
		<path id="path152" class="st4" d="M16444.9,10793.5c-113.7-93.9-213-204.4-294.9-327c-12.6-18.9,17.9-36.6,30.5-17.8
			c80.2,120.2,177.9,227.9,289.3,319.9C16487.3,10783.1,16462.2,10807.9,16444.9,10793.5L16444.9,10793.5"/>
		<path id="path154" class="st4" d="M17479,11105.8c179.3-6.2,354.3-67,499.5-172.3c18.4-13.3,36,17.3,17.8,30.5
			c-116.5,84.4-253.1,141.4-395.1,164.8c-40.5,6.7-81.3,10.8-122.2,12.2C17456.3,11141.8,17456.3,11106.6,17479,11105.8
			L17479,11105.8"/>
		<path id="path156" class="st4" d="M17526.5,10989c108.2-22,213.1-58.2,311.6-108.2c20.2-10.3,38.1,20.1,17.8,30.4
			c-101.2,51.4-208.8,89.2-320.1,111.8C17513.7,11027.5,17504.2,10993.5,17526.5,10989L17526.5,10989"/>
		<path id="path158" class="st4" d="M17506.8,10884.7c73.6-31.1,143.5-70.2,208.7-116.4c7.8-5.5,19.6-1.4,24.2,6.3
			c5.1,8.9,1.4,18.6-6.4,24.2c-65.2,46.2-135.1,85.2-208.7,116.4c-8.8,3.7-18.9,2.6-24.1-6.4
			C17496.1,10901.5,17498,10888.5,17506.8,10884.7L17506.8,10884.7"/>
		<path id="path160" class="st7" d="M15798.6,10226.5c-62.5-92.8-90.7-207.4-78.2-318.6c1.1-9.5,7.3-17.5,17.6-17.6
			c8.7-0.1,18.7,8.1,17.7,17.6c-12,105.8,13.9,212.5,73.3,300.8C15841.7,10227.6,15811.2,10245.3,15798.6,10226.5L15798.6,10226.5"
			/>
		<path id="path162" class="st7" d="M15853.4,9900.4c0-101.2,0-202.5,0-303.8c0-22.7,35.2-22.7,35.2,0c0,101.3,0,202.6,0,303.8
			C15888.6,9923.1,15853.4,9923.1,15853.4,9900.4L15853.4,9900.4"/>
		<path id="path164" class="st7" d="M15659.5,9636.1c16-92.4,46.3-181.7,89.2-265c10.4-20.2,40.8-2.4,30.5,17.8
			c-41.6,80.7-70.2,167.2-85.8,256.5C15689.6,9667.7,15655.6,9658.3,15659.5,9636.1L15659.5,9636.1"/>
		<path id="path166" class="st7" d="M15904.6,9361.8c26.1-80.3,66.7-154.4,119.8-220c6-7.4,18.7-6.2,24.9,0c7.3,7.4,6,17.5,0,25
			c-49.1,60.6-86.7,130.2-110.8,204.4C15931.6,9392.6,15897.5,9383.4,15904.6,9361.8L15904.6,9361.8"/>
		<path id="path168" class="st7" d="M16150.4,9179.4c24.9-54.3,49.7-108.6,74.6-162.9c3.9-8.6,16.5-10.7,24.1-6.3
			c8.9,5.2,10.3,15.4,6.3,24.1c-24.8,54.3-49.7,108.6-74.5,162.9c-4,8.6-16.5,10.7-24.1,6.3
			C16147.9,9198.3,16146.5,9188,16150.4,9179.4L16150.4,9179.4"/>
		<path id="path170" class="st7" d="M16558,8806.5c24.7-66.9,51.5-133,80.3-198.2c3.9-8.7,16.6-10.8,24.1-6.3
			c9,5.2,10.2,15.3,6.4,24.1c-27.6,62.4-53.2,125.7-76.8,189.8c-3.3,8.9-11.9,14.9-21.7,12.3
			C16561.7,8825.8,16554.7,8815.5,16558,8806.5L16558,8806.5"/>
		<path id="path172" class="st7" d="M16760.2,9066.2c13.4-67.1,22.4-134.9,27.1-203.2c1.6-22.5,36.9-22.7,35.3,0
			c-4.9,71.4-14.4,142.4-28.4,212.6C16789.8,9097.8,16755.8,9088.4,16760.2,9066.2L16760.2,9066.2"/>
		<path id="path174" class="st7" d="M16892.1,8425.9c5.3-61.7,10.5-123.4,15.8-185.2c0.8-9.4,7.5-17.6,17.6-17.6
			c8.9,0,18.4,8.1,17.6,17.6c-5.2,61.8-10.5,123.5-15.7,185.2c-0.8,9.5-7.5,17.6-17.6,17.6
			C16900.8,8443.5,16891.3,8435.5,16892.1,8425.9L16892.1,8425.9"/>
		<path id="path176" class="st7" d="M16266.1,8739.4c37.1-37.8,70.5-79,99.8-123.2c5.2-7.9,15.6-11.3,24.1-6.3
			c7.9,4.6,11.6,16.1,6.3,24.1c-30.8,46.7-66.1,90.4-105.3,130.4C16275.1,8780.6,16250.2,8755.6,16266.1,8739.4L16266.1,8739.4"/>
		<path id="path178" class="st7" d="M17765.3,10209c59.2-57.9,102.5-130.2,125.5-209.8c6.2-21.8,40.3-12.5,33.9,9.4
			c-24.5,85.3-71,163.3-134.5,225.3C17773.9,10249.8,17749,10224.9,17765.3,10209L17765.3,10209"/>
		<path id="path180" class="st7" d="M18014.8,10273.2c46.1-49.8,78.1-111,93.3-177.1c5.1-22.1,39.1-12.7,34,9.4
			c-16.6,72-52.2,138.5-102.4,192.6C18024.2,10314.8,17999.4,10289.8,18014.8,10273.2L18014.8,10273.2"/>
		<path id="path182" class="st7" d="M18106.5,9762.3c16.4-80.9,12.4-164.5-11.1-243.6c-6.4-21.8,27.6-31.1,34-9.4
			c25.3,85.3,28.8,175.3,11,262.4C18135.9,9793.9,18101.9,9784.5,18106.5,9762.3L18106.5,9762.3"/>
		<path id="path184" class="st7" d="M17912.4,9707.7c8.7-83.8-0.4-167.7-26.9-247.6c-7.1-21.6,26.9-30.8,34-9.4
			c27.4,82.6,37.1,170.5,28.1,257C17945.3,9730,17910,9730.2,17912.4,9707.7L17912.4,9707.7"/>
		<path id="path186" class="st7" d="M17604.3,9040.6c-8.2-73.2-34.5-143.6-75-205c-12.6-19,18-36.6,30.4-17.8
			c44.1,66.9,70.9,143.3,79.9,222.8c1,9.5-8.9,17.6-17.7,17.6C17611.5,9058.2,17605.4,9050.1,17604.3,9040.6L17604.3,9040.6"/>
		<path id="path188" class="st7" d="M17270.4,9077.7c-9.9-90-32.6-178.4-66.2-262.5c-3.6-8.9,3.9-19.3,12.3-21.7
			c10-2.9,18.1,3.5,21.6,12.3c35,87.2,57.3,178.6,67.5,271.9c1,9.6-8.9,17.6-17.6,17.6
			C17277.6,9095.5,17271.4,9087.1,17270.4,9077.7L17270.4,9077.7"/>
		<path id="path190" class="st7" d="M17482.8,9418.7c6.4-53.4,2.4-106.9-12.2-158.6c-6.2-21.9,27.8-31.2,34-9.4
			c15.4,54.5,20.2,111.8,13.4,168c-1.1,9.4-7.3,17.6-17.6,17.6C17491.7,9436.3,17481.6,9428.2,17482.8,9418.7L17482.8,9418.7"/>
		<path id="path192" class="st7" d="M16830.2,9603.9c3-51.8,6-103.6,9-155.5c0.6-9.5,7.7-17.6,17.6-17.6c9.2,0,18.2,8.1,17.7,17.6
			c-3,51.9-6,103.7-9,155.5c-0.6,9.5-7.7,17.7-17.6,17.7C16838.8,9621.6,16829.7,9613.5,16830.2,9603.9L16830.2,9603.9"/>
		<path id="path194" class="st7" d="M16366.8,9510.9c18.4-57.4,39.9-113.8,63.9-169c3.8-8.8,16.6-10.8,24.2-6.4
			c9,5.3,10.1,15.4,6.3,24.2c-22.9,52.4-42.9,106.1-60.4,160.6C16393.8,9541.8,16359.8,9532.6,16366.8,9510.9L16366.8,9510.9"/>
		<path id="path196" class="st7" d="M16250,10017.6c-33.3-42.4-44.4-100.3-25.2-151.4c3.3-8.9,11.9-15,21.7-12.3
			c8.5,2.3,15.6,12.7,12.3,21.7c-14.7,38.9-9.5,84.5,16.1,117.1c5.9,7.5,7.3,17.6,0,24.9
			C16268.8,10023.7,16255.9,10025.2,16250,10017.6L16250,10017.6"/>
		<path id="path198" class="st7" d="M17218,9986.9c31.8-42.1,52.7-90.5,61.3-142.6c1.6-9.4,13.2-14.7,21.7-12.3
			c10,2.7,13.9,12.2,12.3,21.7c-9,54.5-31.5,106.9-64.9,151c-5.7,7.6-15.2,11.5-24.1,6.3
			C17216.9,10006.7,17212.2,9994.5,17218,9986.9L17218,9986.9"/>
		<path id="path200" class="st7" d="M16260,12331.6c48.8-16.1,91.7-46.8,124.1-87.7c5.9-7.5,18.7-6.2,24.9,0
			c7.4,7.4,5.9,17.5,0,24.9c-35.8,45.3-85,78.8-139.7,96.8c-9,3-19.2-3.5-21.7-12.3C16245,12343.7,16250.9,12334.6,16260,12331.6
			L16260,12331.6"/>
		<path id="path202" class="st7" d="M16421.9,12437.2c6.1-5.5,11.9-11.3,17.3-17.5c2.8-3,5.4-6.2,8-9.4c1.2-1.5,0.6-0.8-0.3,0.3
			c0.7-0.8,1.4-1.8,2.1-2.7c1.2-1.6,2.4-3.3,3.6-5c4.6-6.5,8.8-13.3,12.7-20.3c2-3.6,3.9-7.2,5.7-10.9c0.9-1.9,1.8-3.7,2.6-5.6
			c0.4-0.8,0.8-1.7,1.1-2.5c1.9-4.2-1.4,3.4,0.4-0.8c1.8-4.5,3.8-8.1,8.1-10.6c3.8-2.2,9.4-3.1,13.6-1.8
			c8.2,2.7,16.1,12.6,12.3,21.7c-14.1,34.2-34.8,65.1-62.3,90.1c-6.8,6.2-18.3,7.2-24.9,0
			C16415.7,12455.4,16414.6,12443.9,16421.9,12437.2L16421.9,12437.2"/>
		<path id="path204" class="st7" d="M16547.2,12182.4c25.5-50.2,50.9-100.5,76.4-150.8c4.3-8.5,16.2-10.9,24.1-6.3
			c8.6,5,10.6,15.6,6.3,24.1c-25.4,50.3-50.9,100.5-76.3,150.8c-4.3,8.5-16.3,10.9-24.2,6.3
			C16544.9,12201.5,16542.9,12190.9,16547.2,12182.4L16547.2,12182.4"/>
		<path id="path206" class="st7" d="M16699.5,11876.7c24.9-36.8,40.8-79.7,44.6-123.6c0.8-9.5,7.5-17.6,17.6-17.6
			c8.9,0,18.5,8,17.7,17.6c-4.5,50.5-21,99.3-49.5,141.4c-5.3,7.9-15.5,11.4-24.1,6.4
			C16698,11896.3,16694.1,11884.7,16699.5,11876.7L16699.5,11876.7"/>
		<path id="path208" class="st7" d="M16713.2,12498.7c-19-83.7-19.2-170.3-0.6-254.2c4.9-22.1,38.9-12.7,34,9.4
			c-17.2,77.5-16.9,158,0.6,235.5C16752.2,12511.4,16718.3,12520.9,16713.2,12498.7L16713.2,12498.7"/>
		<path id="path210" class="st7" d="M16927.4,12476.8c-21.9-64.4-43.8-128.7-65.8-193c-7.3-21.5,26.7-30.8,34-9.4
			c21.9,64.4,43.9,128.7,65.8,193C16968.8,12488.9,16934.7,12498.1,16927.4,12476.8L16927.4,12476.8"/>
		<path id="path212" class="st7" d="M16830.9,12079c3.2-54.3,6.3-108.6,9.5-162.9c0.5-9.6,7.7-17.7,17.6-17.7
			c9.1,0,18.2,8.1,17.6,17.7c-3.1,54.3-6.3,108.6-9.5,162.9c-0.5,9.5-7.7,17.6-17.6,17.6
			C16839.4,12096.6,16830.3,12088.5,16830.9,12079L16830.9,12079"/>
		<path id="path214" class="st7" d="M16875.4,11636.9c5.5-36.9,10.9-73.9,16.3-110.9c1.3-9.1,13.4-15,21.7-12.3
			c10,3.2,13.7,11.9,12.3,21.7c-5.4,37-10.9,73.9-16.3,110.9c-1.3,9.2-13.4,15-21.7,12.3
			C16877.7,11655.4,16874,11646.8,16875.4,11636.9L16875.4,11636.9"/>
		<path id="path216" class="st7" d="M16883.3,11414.6c10.5-31.9,20.9-63.9,31.4-95.8c2.9-8.7,12.3-15.3,21.7-12.3
			c8.7,2.8,15.4,12.3,12.3,21.7c-10.5,31.9-20.9,63.8-31.4,95.8c-2.9,8.7-12.3,15.3-21.7,12.3
			C16886.9,11433.4,16880.2,11424,16883.3,11414.6L16883.3,11414.6"/>
		<path id="path218" class="st7" d="M17032.5,12375c3.5,7.5,7.3,14.8,11.6,21.9c2.2,3.6,4.5,7.2,6.9,10.7c1.2,1.7,2.3,3.3,3.5,5
			c0.6,0.9,1.3,1.8,2,2.7c0.3,0.4,2.6,3.4,1,1.4c-1.4-1.8,0.5,0.5,0.7,0.9c0.7,0.8,1.4,1.7,2.1,2.6c1.3,1.5,2.6,3.1,3.9,4.6
			c2.8,3.2,5.7,6.4,8.6,9.4c6,6.1,12.2,11.9,18.8,17.3c7.1,5.9,6.5,18.9,0,24.9c-7.6,7-17.3,6.3-24.9,0
			c-27.3-22.6-49.7-51.5-64.7-83.6c-3.9-8.4-2.6-19.4,6.3-24.1C17016.1,12364.5,17028.3,12366.1,17032.5,12375L17032.5,12375"/>
	</g>
</g>
</svg>
